# India Ink
mtllib model.mtl
o part_0
v -2.586863 2.900000 1.071514
v -1.071513 2.900000 2.586863
v -2.586863 2.900000 -1.071513
v 2.586863 2.900000 1.071513
v 1.071513 2.900000 -2.586863
v 2.586862 2.900000 -1.071514
v -3.500000 -2.900000 -3.500000
v 3.500000 -2.900000 -3.500000
v -3.500000 -2.900000 3.500000
v 3.500000 -2.900000 3.500000
v 3.500000 1.100000 3.500000
v 3.500000 1.100000 -3.500000
v -3.500000 1.100000 3.500000
v -3.500000 1.100000 -3.500000
v 3.500000 -2.900000 3.500000
v 3.500000 1.100000 3.500000
v -3.500000 -2.900000 3.500000
v -3.500000 1.100000 3.500000
v 3.500000 -2.900000 -3.500000
v 3.500000 1.100000 -3.500000
v 3.500000 -2.900000 3.500000
v 3.500000 1.100000 3.500000
v -3.500000 -2.900000 -3.500000
v -3.500000 1.100000 -3.500000
v 3.500000 -2.900000 -3.500000
v 3.500000 1.100000 -3.500000
v -3.500000 -2.900000 3.500000
v -3.500000 1.100000 3.500000
v -3.500000 -2.900000 -3.500000
v -3.500000 1.100000 -3.500000
v 1.071513 1.100000 -2.586863
v 1.071513 2.900000 -2.586863
v 2.586862 1.100000 -1.071514
v 2.586862 2.900000 -1.071514
v -1.071514 1.100000 -2.586862
v -1.071514 2.900000 -2.586862
v 1.071513 1.100000 -2.586863
v 1.071513 2.900000 -2.586863
v -2.586863 1.100000 -1.071513
v -2.586863 2.900000 -1.071513
v -1.071514 1.100000 -2.586862
v -1.071514 2.900000 -2.586862
v -2.586862 1.100000 1.071514
v -2.586863 2.900000 1.071514
v -2.586863 1.100000 -1.071513
v -2.586863 2.900000 -1.071513
v -1.071513 1.100000 2.586863
v -1.071513 2.900000 2.586863
v -2.586862 1.100000 1.071514
v -2.586863 2.900000 1.071514
v 1.071514 1.100000 2.586862
v 1.071514 2.900000 2.586862
v -1.071513 1.100000 2.586863
v -1.071513 2.900000 2.586863
v 2.586863 1.100000 1.071513
v 2.586863 2.900000 1.071513
v 1.071514 1.100000 2.586862
v 1.071514 2.900000 2.586862
v 2.586862 1.100000 -1.071514
v 2.586862 2.900000 -1.071514
v 2.586863 1.100000 1.071513
v 2.586863 2.900000 1.071513
v 1.071513 2.900000 -2.586863
v -1.071514 2.900000 -2.586862
v -2.586863 2.900000 -1.071513
v -1.071513 2.900000 2.586863
v 1.071514 2.900000 2.586862
v 2.586863 2.900000 1.071513
vn 0.000000 1.000000 -0.000000
vn 0.000000 1.000000 -0.000000
vn 0.000000 1.000000 -0.000000
vn 0.000000 1.000000 -0.000000
vn 0.000000 1.000000 -0.000000
vn 0.000000 1.000000 -0.000000
vn 0.000000 -1.000000 0.000000
vn 0.000000 -1.000000 0.000000
vn 0.000000 -1.000000 0.000000
vn 0.000000 -1.000000 0.000000
vn 0.000000 1.000000 -0.000000
vn 0.000000 1.000000 -0.000000
vn 0.000000 1.000000 -0.000000
vn 0.000000 1.000000 -0.000000
vn 0.000000 0.000000 1.000000
vn 0.000000 0.000000 1.000000
vn 0.000000 0.000000 1.000000
vn 0.000000 0.000000 1.000000
vn 1.000000 0.000000 0.000000
vn 1.000000 0.000000 0.000000
vn 1.000000 0.000000 0.000000
vn 1.000000 0.000000 0.000000
vn 0.000000 -0.000000 -1.000000
vn 0.000000 -0.000000 -1.000000
vn 0.000000 -0.000000 -1.000000
vn 0.000000 -0.000000 -1.000000
vn -1.000000 0.000000 0.000000
vn -1.000000 0.000000 0.000000
vn -1.000000 0.000000 0.000000
vn -1.000000 0.000000 0.000000
vn 0.252725 -0.000000 -0.967538
vn 0.505449 0.000000 -0.862856
vn 0.862856 0.000000 -0.505450
vn 0.967538 0.000000 -0.252725
vn -0.505450 -0.000000 -0.862856
vn -0.252725 -0.000000 -0.967538
vn 0.252725 -0.000000 -0.967538
vn 0.505449 0.000000 -0.862856
vn -0.967538 -0.000000 -0.252725
vn -0.862856 -0.000000 -0.505449
vn -0.505450 -0.000000 -0.862856
vn -0.252725 -0.000000 -0.967538
vn -0.862856 -0.000000 0.505450
vn -0.967538 -0.000000 0.252725
vn -0.967538 -0.000000 -0.252725
vn -0.862856 -0.000000 -0.505449
vn -0.252725 0.000000 0.967538
vn -0.505449 -0.000000 0.862856
vn -0.862856 -0.000000 0.505450
vn -0.967538 -0.000000 0.252725
vn 0.505450 0.000000 0.862856
vn 0.252725 0.000000 0.967538
vn -0.252725 0.000000 0.967538
vn -0.505449 -0.000000 0.862856
vn 0.967538 0.000000 0.252725
vn 0.862856 0.000000 0.505449
vn 0.505450 0.000000 0.862856
vn 0.252725 0.000000 0.967538
vn 0.862856 0.000000 -0.505450
vn 0.967538 0.000000 -0.252725
vn 0.967538 0.000000 0.252725
vn 0.862856 0.000000 0.505449
vn 0.000000 1.000000 -0.000000
vn 0.000000 1.000000 -0.000000
vn 0.000000 1.000000 -0.000000
vn 0.000000 1.000000 -0.000000
vn 0.000000 1.000000 -0.000000
vn 0.000000 1.000000 -0.000000
vt 0.939359 0.023318
vt 0.941546 0.025504
vt 0.939359 0.020226
vt 0.946825 0.023318
vt 0.944638 0.018039
vt 0.946825 0.020226
vt 0.666255 0.667947
vt 0.988997 0.667947
vt 0.666255 0.990688
vt 0.988997 0.990688
vt 0.682635 0.983658
vt 0.682635 0.975430
vt 0.674406 0.983658
vt 0.674406 0.975430
vt 0.638292 0.581067
vt 0.638292 0.198074
vt 0.014167 0.581067
vt 0.014167 0.198074
vt 0.646693 0.987987
vt 0.646693 0.604994
vt 0.014167 0.987987
vt 0.014167 0.604994
vt 0.682635 0.983658
vt 0.682635 0.975430
vt 0.674406 0.983658
vt 0.674406 0.975430
vt 0.682635 0.983658
vt 0.682635 0.975430
vt 0.674406 0.983658
vt 0.674406 0.975430
vt 0.670984 0.299208
vt 0.670984 0.013419
vt 0.996100 0.299208
vt 0.996100 0.013419
vt 0.670984 0.299208
vt 0.670984 0.013419
vt 0.996100 0.299208
vt 0.996100 0.013419
vt 0.670984 0.299208
vt 0.670984 0.013419
vt 0.996100 0.299208
vt 0.996100 0.013419
vt 0.670984 0.299208
vt 0.670984 0.013419
vt 0.996100 0.299208
vt 0.996100 0.013419
vt 0.670984 0.299208
vt 0.670984 0.013419
vt 0.996100 0.299208
vt 0.996100 0.013419
vt 0.996100 0.299208
vt 0.996100 0.013419
vt 0.670984 0.299208
vt 0.670984 0.013419
vt 0.670984 0.299208
vt 0.670984 0.013419
vt 0.996100 0.299208
vt 0.996100 0.013419
vt 0.670984 0.299208
vt 0.670984 0.013419
vt 0.996100 0.299208
vt 0.996100 0.013419
vt 0.944638 0.018039
vt 0.941546 0.018039
vt 0.939359 0.020226
vt 0.941546 0.025504
vt 0.944638 0.025504
vt 0.946825 0.023318
usemtl material_0
f 1/1/1 2/2/2 3/3/3
f 3/3/3 2/2/2 4/4/4
f 3/3/3 4/4/4 5/5/5
f 5/5/5 4/4/4 6/6/6
f 7/7/7 8/8/8 9/9/9
f 9/9/9 8/8/8 10/10/10
f 11/11/11 12/12/12 13/13/13
f 13/13/13 12/12/12 14/14/14
f 15/15/15 16/16/16 17/17/17
f 17/17/17 16/16/16 18/18/18
f 19/19/19 20/20/20 21/21/21
f 21/21/21 20/20/20 22/22/22
f 23/23/23 24/24/24 25/25/25
f 25/25/25 24/24/24 26/26/26
f 27/27/27 28/28/28 29/29/29
f 29/29/29 28/28/28 30/30/30
f 31/31/31 32/32/32 33/33/33
f 33/33/33 32/32/32 34/34/34
f 35/35/35 36/36/36 37/37/37
f 37/37/37 36/36/36 38/38/38
f 39/39/39 40/40/40 41/41/41
f 41/41/41 40/40/40 42/42/42
f 43/43/43 44/44/44 45/45/45
f 45/45/45 44/44/44 46/46/46
f 47/47/47 48/48/48 49/49/49
f 49/49/49 48/48/48 50/50/50
f 51/51/51 52/52/52 53/53/53
f 53/53/53 52/52/52 54/54/54
f 55/55/55 56/56/56 57/57/57
f 57/57/57 56/56/56 58/58/58
f 59/59/59 60/60/60 61/61/61
f 61/61/61 60/60/60 62/62/62
f 63/63/63 64/64/64 65/65/65
f 66/66/66 67/67/67 68/68/68
