# #2 Pencil
mtllib model.mtl
o part_0
v 0.200000 0.346410 -3.070228
v 0.200000 0.346410 1.627104
v 0.400000 0.000000 -3.070228
v 0.400000 -0.000000 1.627104
v -0.200000 0.346410 -3.070228
v -0.200000 0.346410 1.627104
v 0.200000 0.346410 -3.070228
v 0.200000 0.346410 1.627104
v -0.400000 0.000000 -3.070228
v -0.400000 -0.000000 1.627104
v -0.200000 0.346410 -3.070228
v -0.200000 0.346410 1.627104
v -0.200000 -0.346410 -3.070228
v -0.200000 -0.346410 1.627104
v -0.400000 0.000000 -3.070228
v -0.400000 -0.000000 1.627104
v 0.200000 -0.346410 -3.070228
v 0.200000 -0.346410 1.627104
v -0.200000 -0.346410 -3.070228
v -0.200000 -0.346410 1.627104
v 0.400000 0.000000 -3.070228
v 0.400000 -0.000000 1.627104
v 0.200000 -0.346410 -3.070228
v 0.200000 -0.346410 1.627104
v 0.200000 0.346410 1.627104
v 0.200000 0.346410 4.857792
v 0.400000 -0.000000 1.627104
v 0.400000 -0.000000 4.857792
v -0.200000 0.346410 1.627104
v -0.200000 0.346410 4.857792
v 0.200000 0.346410 1.627104
v 0.200000 0.346410 4.857792
v -0.400000 -0.000000 1.627104
v -0.400000 -0.000000 4.857792
v -0.200000 0.346410 1.627104
v -0.200000 0.346410 4.857792
v -0.200000 -0.346410 1.627104
v -0.200000 -0.346410 4.857792
v -0.400000 -0.000000 1.627104
v -0.400000 -0.000000 4.857792
v 0.200000 -0.346410 1.627104
v 0.200000 -0.346410 4.857792
v -0.200000 -0.346410 1.627104
v -0.200000 -0.346410 4.857792
v 0.400000 -0.000000 1.627104
v 0.400000 -0.000000 4.857792
v 0.200000 -0.346410 1.627104
v 0.200000 -0.346410 4.857792
v -0.200000 -0.346410 4.857792
v 0.200000 -0.346410 4.857792
v 0.200000 0.346410 4.857792
v 0.400000 -0.000000 4.857792
v -0.400000 -0.000000 4.857792
v -0.200000 -0.346410 4.857792
v -0.200000 0.346410 4.857792
v 0.200000 0.346410 4.857792
v 0.200000 0.346410 -3.070228
v 0.400000 0.000000 -3.070228
v 0.000000 0.000000 -4.857792
v -0.200000 0.346410 -3.070228
v 0.200000 0.346410 -3.070228
v 0.000000 0.000000 -4.857792
v -0.200000 -0.346410 -3.070228
v -0.400000 0.000000 -3.070228
v 0.000000 0.000000 -4.857792
v 0.200000 -0.346410 -3.070228
v -0.200000 -0.346410 -3.070228
v 0.000000 0.000000 -4.857792
v -0.400000 0.000000 -3.070228
v -0.200000 0.346410 -3.070228
v 0.000000 0.000000 -4.857792
v 0.400000 0.000000 -3.070228
v 0.200000 -0.346410 -3.070228
v 0.000000 0.000000 -4.857792
vn 0.866025 0.500000 0.000000
vn 0.866025 0.500000 0.000000
vn 0.866025 0.500000 0.000000
vn 0.866025 0.500000 0.000000
vn -0.000000 1.000000 0.000000
vn -0.000000 1.000000 0.000000
vn -0.000000 1.000000 0.000000
vn -0.000000 1.000000 0.000000
vn -0.866025 0.500000 -0.000000
vn -0.866025 0.500000 0.000000
vn -0.866025 0.500000 0.000000
vn -0.866025 0.500000 0.000000
vn -0.866025 -0.500000 -0.000000
vn -0.866025 -0.500000 -0.000000
vn -0.866025 -0.500000 -0.000000
vn -0.866025 -0.500000 -0.000000
vn 0.000000 -1.000000 -0.000000
vn 0.000000 -1.000000 -0.000000
vn 0.000000 -1.000000 -0.000000
vn 0.000000 -1.000000 -0.000000
vn 0.866025 -0.500000 0.000000
vn 0.866025 -0.500000 -0.000000
vn 0.866025 -0.500000 -0.000000
vn 0.866026 -0.500000 -0.000000
vn 0.866025 0.500000 0.000000
vn 0.866025 0.500000 -0.000000
vn 0.866025 0.500000 0.000000
vn 0.866025 0.500000 -0.000000
vn -0.000000 1.000000 0.000000
vn -0.000000 1.000000 0.000000
vn -0.000000 1.000000 0.000000
vn -0.000000 1.000000 0.000000
vn -0.866025 0.500000 0.000000
vn -0.866025 0.500000 0.000000
vn -0.866025 0.500000 0.000000
vn -0.866025 0.500000 0.000000
vn -0.866025 -0.500000 -0.000000
vn -0.866025 -0.500000 0.000000
vn -0.866025 -0.500000 -0.000000
vn -0.866025 -0.500000 0.000000
vn 0.000000 -1.000000 -0.000000
vn 0.000000 -1.000000 -0.000000
vn 0.000000 -1.000000 -0.000000
vn 0.000000 -1.000000 -0.000000
vn 0.866025 -0.500000 -0.000000
vn 0.866025 -0.500000 -0.000000
vn 0.866026 -0.500000 -0.000000
vn 0.866025 -0.500000 -0.000000
vn 0.000000 0.000000 1.000000
vn 0.000000 0.000000 1.000000
vn 0.000000 0.000000 1.000000
vn 0.000000 0.000000 1.000000
vn 0.000000 0.000000 1.000000
vn 0.000000 0.000000 1.000000
vn 0.000000 0.000000 1.000000
vn 0.000000 0.000000 1.000000
vn 0.850208 0.490868 -0.190250
vn 0.850208 0.490868 -0.190250
vn 0.850208 0.490868 -0.190250
vn -0.000000 0.981736 -0.190250
vn -0.000000 0.981736 -0.190250
vn -0.000000 0.981736 -0.190250
vn -0.850208 -0.490868 -0.190250
vn -0.850208 -0.490868 -0.190250
vn -0.850208 -0.490868 -0.190250
vn 0.000000 -0.981736 -0.190250
vn 0.000000 -0.981736 -0.190250
vn 0.000000 -0.981736 -0.190250
vn -0.850208 0.490868 -0.190250
vn -0.850208 0.490868 -0.190250
vn -0.850208 0.490868 -0.190250
vn 0.850208 -0.490868 -0.190250
vn 0.850208 -0.490868 -0.190250
vn 0.850208 -0.490868 -0.190250
vt 0.335799 0.175275
vt 1.115474 0.175275
vt 0.335799 0.149544
vt 1.115474 0.149544
vt 0.335799 0.175275
vt 1.115474 0.175275
vt 0.335799 0.001888
vt 1.115474 0.001888
vt 0.335799 0.175275
vt 1.115474 0.175275
vt 0.335799 0.149544
vt 1.115474 0.149544
vt 0.335799 0.175275
vt 1.115474 0.175275
vt 0.335799 0.149544
vt 1.115474 0.149544
vt 0.230041 0.313702
vt 1.011561 0.313702
vt 0.230041 0.140315
vt 1.011561 0.140315
vt 0.335799 0.175275
vt 1.115474 0.175275
vt 0.335799 0.149544
vt 1.115474 0.149544
vt 0.200879 0.459513
vt 0.998457 0.459513
vt 0.200879 0.465085
vt 0.998457 0.465085
vt 0.200879 0.468741
vt 0.998457 0.468741
vt 0.200879 0.322966
vt 0.998457 0.322966
vt 0.200879 0.459513
vt 0.998457 0.459513
vt 0.200879 0.465085
vt 0.998457 0.465085
vt 0.200879 0.468741
vt 0.998457 0.468741
vt 0.200879 0.322966
vt 0.998457 0.322966
vt 0.200879 0.459513
vt 0.998457 0.459513
vt 0.200879 0.465085
vt 0.998457 0.465085
vt 0.200879 0.468741
vt 0.998457 0.468741
vt 0.200879 0.322966
vt 0.998457 0.322966
vt 0.004647 0.351762
vt 0.115544 0.408651
vt 0.004564 0.579191
vt 0.115503 0.522366
vt 0.112003 0.408587
vt 0.001064 0.351762
vt 0.112044 0.522302
vt 0.001147 0.579191
vt 0.998457 0.981846
vt 0.998457 0.814192
vt 0.040303 0.898019
vt 0.998457 0.980020
vt 0.998457 0.812366
vt 0.040303 0.896193
vt 0.998457 0.981846
vt 0.998457 0.814192
vt 0.040303 0.898019
vt 0.998457 0.981846
vt 0.998457 0.814192
vt 0.040303 0.898019
vt 0.998457 0.981846
vt 0.998457 0.814192
vt 0.040303 0.898019
vt 0.998457 0.981846
vt 0.998457 0.814192
vt 0.040303 0.898019
usemtl material_0
f 1/1/1 2/2/2 3/3/3
f 3/3/3 2/2/2 4/4/4
f 5/5/5 6/6/6 7/7/7
f 7/7/7 6/6/6 8/8/8
f 9/9/9 10/10/10 11/11/11
f 11/11/11 10/10/10 12/12/12
f 13/13/13 14/14/14 15/15/15
f 15/15/15 14/14/14 16/16/16
f 17/17/17 18/18/18 19/19/19
f 19/19/19 18/18/18 20/20/20
f 21/21/21 22/22/22 23/23/23
f 23/23/23 22/22/22 24/24/24
f 25/25/25 26/26/26 27/27/27
f 27/27/27 26/26/26 28/28/28
f 29/29/29 30/30/30 31/31/31
f 31/31/31 30/30/30 32/32/32
f 33/33/33 34/34/34 35/35/35
f 35/35/35 34/34/34 36/36/36
f 37/37/37 38/38/38 39/39/39
f 39/39/39 38/38/38 40/40/40
f 41/41/41 42/42/42 43/43/43
f 43/43/43 42/42/42 44/44/44
f 45/45/45 46/46/46 47/47/47
f 47/47/47 46/46/46 48/48/48
f 49/49/49 50/50/50 51/51/51
f 51/51/51 50/50/50 52/52/52
f 53/53/53 54/54/54 55/55/55
f 55/55/55 54/54/54 56/56/56
f 57/57/57 58/58/58 59/59/59
f 60/60/60 61/61/61 62/62/62
f 63/63/63 64/64/64 65/65/65
f 66/66/66 67/67/67 68/68/68
f 69/69/69 70/70/70 71/71/71
f 72/72/72 73/73/73 74/74/74
