# Stamp
mtllib model.mtl
o part_0
v -1.125000 -0.005000 -1.350000
v 1.125000 -0.005000 -1.350000
v -1.125000 -0.005000 1.350000
v 1.125000 -0.005000 1.350000
v 1.125000 0.005000 1.350000
v 1.125000 0.005000 -1.350000
v -1.125000 0.005000 1.350000
v -1.125000 0.005000 -1.350000
vn 0.000000 -1.000000 0.000000
vn 0.000000 -1.000000 0.000000
vn 0.000000 -1.000000 0.000000
vn 0.000000 -1.000000 0.000000
vn 0.000000 1.000000 -0.000000
vn 0.000000 1.000000 -0.000000
vn 0.000000 1.000000 -0.000000
vn 0.000000 1.000000 -0.000000
vt 0.375222 0.047569
vt 0.748849 0.047569
vt 0.375222 0.936576
vt 0.748849 0.936576
vt 0.374755 0.936576
vt 0.374755 0.047569
vt 0.001128 0.936576
vt 0.001128 0.047569
usemtl material_0
f 1/1/1 2/2/2 3/3/3
f 3/3/3 2/2/2 4/4/4
f 5/5/5 6/6/6 7/7/7
f 7/7/7 6/6/6 8/8/8
