<svg width="184" height="49" viewBox="0 0 184 49" fill="none" xmlns="http://www.w3.org/2000/svg">
<path d="M31.9262 23.9157C31.3251 24.684 30.8222 25.5299 30.4337 26.4346C30.4278 26.4478 30.422 26.461 30.4161 26.4742C30.0422 27.3568 29.7754 28.2937 29.6361 29.2731C29.6361 29.2789 29.6361 29.2863 29.6361 29.2907C29.5613 29.8097 29.5232 30.3404 29.5232 30.88C29.5232 31.3389 29.551 31.792 29.6053 32.2362H18.4463V29.2731H28.1362C28.1538 29.1514 28.1758 29.0312 28.1978 28.9109L18.8627 26.4404L19.6398 23.577L29.0907 26.0783C29.1347 25.983 29.1786 25.8877 29.2241 25.7939L20.7423 20.9584L22.2422 18.3926L30.8501 23.2984C30.9175 23.2178 30.9864 23.1372 31.0583 23.058L24.006 16.0966L26.129 14L33.2942 21.0757L34.0507 21.8235C33.2546 22.4261 32.5391 23.1313 31.9262 23.9157ZM151.069 21.8484H153.564L155.058 29.6352L156.787 21.8484H159.325L161.053 29.6557L162.59 21.8484H165.065L162.569 32.2377H159.476L158.068 25.8804L156.66 32.2377H153.567L151.071 21.8484H151.069ZM145.565 21.5493C148.765 21.5493 150.854 23.8321 150.854 27.0533C150.854 30.2745 148.764 32.5353 145.565 32.5353C142.365 32.5353 140.253 30.2745 140.253 27.0533C140.253 23.8321 142.343 21.5493 145.565 21.5493ZM142.642 27.0533C142.642 29.0165 143.623 30.424 145.565 30.424C147.506 30.424 148.487 29.0165 148.487 27.0533C148.487 25.0901 147.506 23.6401 145.565 23.6401C143.623 23.6401 142.642 25.1341 142.642 27.0533ZM136.732 18.3281V32.2377H139.08V18.3281H136.732ZM134.215 18.3281C131.975 18.3281 130.909 19.3735 130.909 21.2297V21.8484H129.841V23.8321H130.909V32.2377H133.234V23.8321H135.517V21.8484H133.234V21.2297C133.234 20.6329 133.576 20.3119 134.237 20.3119H135.731V18.3281H134.216H134.215ZM123.336 21.8484V32.2377H125.661V23.8321H129.01V21.8484H123.336ZM117.405 32.5353C114.184 32.5353 112.093 30.2745 112.093 27.0533C112.093 23.8321 114.184 21.5493 117.405 21.5493C120.222 21.5493 122.632 23.8321 122.121 27.8216H114.548C114.74 29.3361 115.636 30.424 117.407 30.424C118.622 30.424 119.39 29.7833 119.71 28.93H122.142C121.694 31.0633 119.924 32.5353 117.407 32.5353H117.405ZM114.589 25.9009H119.836C119.709 24.6634 118.94 23.6401 117.404 23.6401C115.782 23.6401 114.908 24.5784 114.587 25.9009H114.589ZM102.386 21.8484H104.881L107.207 30.1469L109.554 21.8484H112.049L108.806 32.2377H105.628L102.384 21.8484H102.386ZM89.1391 25.9434C89.1391 22.3806 91.4219 19.3735 95.5609 19.3735C99.6999 19.3735 101.961 22.3821 101.961 25.9434C101.961 29.5047 99.6779 32.5353 95.5609 32.5353C91.4439 32.5353 89.1391 29.5487 89.1391 25.9434ZM99.4418 25.9434C99.4418 23.8101 98.2689 21.5493 95.5594 21.5493C92.8499 21.5493 91.6125 23.8101 91.6125 25.9434C91.6125 28.0767 92.8279 30.3595 95.5594 30.3595C98.2909 30.3595 99.4418 28.0767 99.4418 25.9434ZM77.7675 19.6711H80.1148V26.0065L83.4635 21.8469H86.2155L82.8448 26.0284L86.5571 32.2362H83.9547L81.4373 27.7351L80.1148 29.3992V32.2362H77.7675V19.6711ZM71.7518 32.5353C68.5511 32.5353 66.4618 30.2745 66.4618 27.0533C66.4618 23.8321 68.5526 21.5493 71.7518 21.5493C74.5888 21.5493 76.5725 23.6401 76.5945 25.9229H74.1621C74.0976 24.7925 73.4159 23.662 71.7518 23.662C69.7255 23.662 68.8502 25.1341 68.8502 27.0533C68.8502 28.9725 69.7255 30.402 71.7518 30.402C73.4804 30.402 74.1621 29.1866 74.2267 27.8846H76.637C76.5945 30.5721 74.6958 32.5353 71.7518 32.5353ZM59.7834 21.5493C61.2555 21.5493 62.2789 22.146 62.9401 23.1914V21.8469H65.2654V32.2362H62.9401V30.9137C62.3214 31.9166 61.3185 32.5353 59.7834 32.5353C56.8819 32.5353 55.1108 30.2745 55.1108 27.0533C55.1108 23.8321 56.8819 21.5493 59.7834 21.5493ZM57.5021 27.0533C57.5021 29.0165 58.4404 30.424 60.147 30.424C62.0237 30.424 62.9416 28.974 62.9416 27.0533C62.9416 25.1326 62.0237 23.6401 60.147 23.6401C58.4404 23.6401 57.5021 25.0696 57.5021 27.0533ZM48.8619 21.8484H50.2489V19.6726H52.5743V21.8484H54.3454V23.8321H52.5743V30.2539H54.643V32.2377H50.2489V23.8321H48.8619V21.8484ZM42.9943 30.3815C44.4884 30.3815 45.5763 29.8053 45.5763 28.7394C45.5763 26.0944 37.6824 28.5048 37.6824 23.1929C37.6824 21.1241 39.6456 19.375 42.8023 19.375C45.5763 19.375 47.8371 21.1886 47.8371 23.7911H45.3417C45.2346 22.3835 44.4239 21.5508 42.7172 21.5508C41.0106 21.5508 40.1573 22.234 40.1573 23.1929C40.1573 26.0724 48.0292 23.47 48.0292 28.7394C48.0292 31.1718 46.1085 32.5368 42.8668 32.5368C39.8582 32.5368 37.6194 30.6381 37.5329 28.1001H40.0503C40.1778 29.5297 41.3948 30.383 42.9943 30.383V30.3815Z" fill="#201C1D"/>
</svg>
