<svg width="142" height="49" viewBox="0 0 142 49" fill="none" xmlns="http://www.w3.org/2000/svg">
<path fill-rule="evenodd" clip-rule="evenodd" d="M64.4547 20.6833L64.3911 20.6531C64.3847 20.6493 63.6392 20.3136 63.0564 20.9269L62.982 21.0054L64.1757 21.5906L64.4547 20.6833ZM69.9189 27.2383C69.9189 27.2383 69.3987 28.1697 69.1656 28.5139C68.9315 28.8608 68.1992 29.0763 67.5662 28.7738C67.2767 28.6362 64.5682 27.0565 63.5318 27.1469C58.2857 27.6043 56.8565 25.4428 56.688 25.2464C56.5187 25.05 56.2034 25.1414 56.4287 25.5278C57.5796 27.5013 60.9854 28.4164 60.9854 28.4164C61.876 30.5625 61.9827 32.0661 61.9827 32.0661C61.1005 31.3787 60.1484 30.7994 59.1382 30.3182C56.4382 28.5064 52.2115 26.2628 46.3935 24.8563C46.7279 20.2412 49.0565 13.5697 59.9463 15.1474C59.9463 15.1474 62.1311 15.5055 63.5878 16.5127C63.5878 16.5127 63.2379 16.8796 62.7778 17.339C62.3177 17.7974 62.8267 18.0917 62.8267 18.0917L65.1268 19.8997C65.1536 20.8563 65.193 21.1244 65.9127 21.9902C66.6324 22.8543 69.4306 25.785 69.7966 26.1771C70.2207 26.6304 69.9189 27.2383 69.9189 27.2383ZM44.8393 18.2426C44.2633 20.615 44.3075 22.7054 44.6035 24.4629C44.0567 24.3541 43.5019 24.2498 42.93 24.1567C31.012 22.2171 27.4173 28.0912 28.8084 32.8541C24.8685 34.3349 21.1657 36.0302 18.1929 37.6948C22.8705 26.4761 33.0358 16.602 41.6153 15.3043C44.4166 14.935 45.2046 16.7522 44.8393 18.2426Z" fill="#201C1D"/>
<path fill-rule="evenodd" clip-rule="evenodd" d="M46.4904 28.4956C51.1337 28.1286 55.5161 28.5945 59.138 30.3179C56.4383 28.5061 52.2116 26.2625 46.3932 24.856C46.277 26.4639 46.4014 27.8218 46.4904 28.4956ZM45.8203 28.554C40.6177 29.0505 34.4661 30.7291 28.8085 32.8538C27.4174 28.0909 31.0124 22.2168 42.93 24.1564C43.5019 24.2495 44.0568 24.3538 44.6032 24.4626C44.8859 26.1428 45.3976 27.5231 45.8203 28.554Z" fill="#A09E9B"/>
<path fill-rule="evenodd" clip-rule="evenodd" d="M115.516 26.7797L117.13 22.8405L118.744 26.7797H115.516ZM115.932 19.6308L110.727 31.8634H113.451L114.561 29.1399H119.698L120.808 31.8634H123.602L118.397 19.6308H115.932ZM82.2217 23.9475C82.2217 24.9951 81.4361 25.7991 80.0905 25.7991H77.9583V22.06H80.0375C81.3837 22.06 82.2217 22.7066 82.2217 23.9125V23.9475ZM80.2651 19.6308H75.2671V31.8634H77.9583V28.1936H80.0021C82.746 28.1936 84.9489 26.725 84.9489 23.8942V23.8592C84.9489 21.3603 83.1843 19.6308 80.2651 19.6308ZM99.591 20.9967C98.3083 22.2499 97.6579 23.8361 97.6579 25.7117C97.6579 27.5891 98.296 29.1634 99.5567 30.3938C100.815 31.6228 102.397 32.245 104.259 32.245C106.464 32.245 108.188 31.5776 109.385 30.2609L109.447 30.1916V24.5768H104.127V26.8494H106.902V29.1427C106.183 29.5705 105.286 29.7876 104.234 29.7876C103.144 29.7876 102.204 29.4142 101.439 28.6761C100.676 27.9415 100.289 26.9455 100.289 25.7219C100.289 24.4973 100.688 23.4973 101.473 22.7501C102.262 21.9998 103.252 21.6193 104.417 21.6193C105.029 21.6193 105.572 21.6947 106.029 21.8435C106.458 21.9828 106.892 22.236 107.322 22.5911L108.811 20.7123C108.025 20.0205 106.612 19.1099 104.259 19.1099C102.445 19.1099 100.874 19.7449 99.591 20.9967ZM89.5915 26.9717H94.8604V24.5768H89.5915V22.0236H96.1451V19.6308H86.9173V31.8634H96.2321V29.4695H89.5915V26.9717Z" fill="#201C1D"/>
</svg>
