# Toolbox
mtllib model.mtl
o part_0
v -14.499999 -2.500000 9.499999
v -14.499999 -2.499999 8.499998
v -14.499999 -4.500000 9.499999
v -14.499999 -4.500000 8.499998
v -14.499999 -5.500000 8.999999
v -14.499999 -7.500000 8.499999
v -14.499999 -6.500000 8.999999
v -14.499999 -7.500001 9.499999
v 11.999998 -2.500000 9.499999
v 11.999998 -2.499999 8.499998
v 11.999998 -4.500000 9.499999
v 11.999998 -4.500000 8.499998
v 11.999998 -5.500000 8.999999
v 11.999998 -7.500000 8.499999
v 11.999998 -6.500000 8.999999
v 11.999998 -7.500001 9.499999
v -11.999999 -7.500001 9.499999
v -11.999999 -7.500000 8.499999
v -11.999999 -6.500000 8.999999
v -11.999999 -4.500000 8.499998
v -11.999999 -5.500000 8.999999
v -11.999999 -4.500000 9.499999
v 14.499999 -7.500001 9.499999
v 14.499999 -7.500000 8.499999
v 14.499999 -6.500000 8.999999
v 14.499999 -4.500000 8.499998
v 14.499999 -5.500000 8.999999
v 14.499999 -4.500000 9.499999
v -19.999998 -8.999999 -9.499999
v 19.999998 -8.999999 -9.500000
v -19.999998 -8.999994 8.499999
v 19.999998 -8.999994 8.499999
v 19.999998 4.000000 3.000000
v 19.999998 4.000000 -3.999999
v -19.999998 4.000000 3.000000
v -19.999998 4.000000 -4.000000
v 19.999998 1.000000 8.499999
v -19.999998 0.999998 8.499999
v 19.999998 -8.999994 8.499999
v -19.999998 -8.999994 8.499999
v 19.999998 1.000000 -9.499999
v 19.999998 1.000000 8.499999
v 19.999998 -8.999999 -9.500000
v 19.999998 -8.999994 8.499999
v -19.999998 1.000000 -9.499999
v 19.999998 1.000000 -9.499999
v -19.999998 -8.999999 -9.499999
v 19.999998 -8.999999 -9.500000
v -19.999998 0.999998 8.499999
v -19.999998 1.000000 -9.499999
v -19.999998 -8.999994 8.499999
v -19.999998 -8.999999 -9.499999
v -19.999998 4.000000 3.000000
v -19.999998 0.999998 8.499999
v 19.999998 4.000000 3.000000
v 19.999998 1.000000 8.499999
v 19.999998 4.000000 3.000000
v 19.999998 1.000000 8.499999
v 19.999998 4.000000 -3.999999
v 19.999998 1.000000 -9.499999
v -19.999998 4.000000 -4.000000
v -19.999998 1.000000 -9.499999
v -19.999998 4.000000 3.000000
v -19.999998 0.999998 8.499999
v -7.000000 4.999999 -1.499999
v -7.000000 4.000000 -1.499999
v -8.999999 4.999999 -1.499999
v -8.999999 4.000000 -1.499999
v -7.000000 4.999999 0.500001
v -8.999999 4.999999 0.500001
v -7.000000 4.000000 0.500001
v -8.999999 4.000000 0.500001
v 8.999999 4.999999 -1.499999
v 8.999999 4.999999 0.500001
v 8.999999 4.000000 -1.499999
v 8.999999 4.000000 0.500001
v 7.000000 4.999999 0.500001
v 8.999999 4.999999 0.500001
v 7.000000 4.999999 -1.499999
v 8.999999 4.999999 -1.499999
v -8.999999 4.000000 -1.499999
v -8.999999 4.000000 0.500001
v -8.999999 4.999999 -1.499999
v -8.999999 4.999999 0.500001
v 3.999999 6.999999 -1.499999
v -4.000000 6.999999 -1.499999
v 4.000000 8.999999 -1.499999
v -4.000000 8.999999 -1.499999
v 4.000000 8.999999 0.500001
v -4.000000 8.999999 0.500001
v 4.000000 6.999999 0.500001
v -4.000000 6.999999 0.500001
v 4.000000 6.999999 0.500001
v -4.000000 6.999999 0.500001
v 3.999999 6.999999 -1.499999
v -4.000000 6.999999 -1.499999
v -7.000000 4.999999 0.500001
v -4.000000 8.999999 0.500001
v -7.000000 4.999999 -1.499999
v -4.000000 8.999999 -1.499999
v -4.000000 8.999999 0.500001
v 4.000000 8.999999 0.500001
v -4.000000 8.999999 -1.499999
v 4.000000 8.999999 -1.499999
v 7.000000 4.000000 -1.499999
v 3.999999 6.999999 -1.499999
v 7.000000 4.999999 -1.499999
v 4.000000 8.999999 -1.499999
v 7.000000 4.999999 0.500001
v 4.000000 8.999999 0.500001
v 7.000000 4.000000 0.500001
v 4.000000 6.999999 0.500001
v 7.000000 4.000000 0.500001
v 4.000000 6.999999 0.500001
v 7.000000 4.000000 -1.499999
v 3.999999 6.999999 -1.499999
v 4.000000 8.999999 0.500001
v 7.000000 4.999999 0.500001
v 4.000000 8.999999 -1.499999
v 7.000000 4.999999 -1.499999
v 8.999999 4.000000 -1.499999
v 7.000000 4.000000 -1.499999
v 8.999999 4.999999 -1.499999
v 7.000000 4.999999 -1.499999
v 8.999999 4.999999 0.500001
v 7.000000 4.999999 0.500001
v 8.999999 4.000000 0.500001
v 7.000000 4.000000 0.500001
v -4.000000 6.999999 -1.499999
v -7.000000 4.000000 -1.499999
v -4.000000 8.999999 -1.499999
v -7.000000 4.999999 -1.499999
v -4.000000 8.999999 0.500001
v -7.000000 4.999999 0.500001
v -4.000000 6.999999 0.500001
v -7.000000 4.000000 0.500001
v -4.000000 6.999999 0.500001
v -7.000000 4.000000 0.500001
v -4.000000 6.999999 -1.499999
v -7.000000 4.000000 -1.499999
v -8.999999 4.999999 0.500001
v -7.000000 4.999999 0.500001
v -8.999999 4.999999 -1.499999
v -7.000000 4.999999 -1.499999
v -14.500001 -1.500000 8.500000
v -11.999999 -1.500000 8.499999
v -14.499999 -0.500000 9.500000
v -11.999999 -0.500000 9.499999
v -14.499999 -0.500000 8.500000
v -11.999999 -0.500000 8.499999
v -14.500001 -1.500000 8.500000
v -11.999999 -1.500000 8.499999
v -14.499999 -0.500000 9.500000
v -11.999999 -0.500000 9.499999
v -14.499999 -0.500000 8.500000
v -11.999999 -0.500000 8.499999
v -11.499999 -4.500002 8.999999
v -11.499999 -0.500000 9.000000
v -14.999999 -4.500002 8.999999
v -14.999999 -0.500000 9.000000
v -11.999999 -6.500000 8.999999
v -14.499999 -6.500000 8.999999
v -11.999999 -7.500001 9.499999
v -14.499999 -7.500001 9.499999
v -14.499999 -7.500000 8.499999
v -11.999999 -7.500000 8.499999
v -14.499999 -7.500001 9.499999
v -11.999999 -7.500001 9.499999
v -11.999999 -2.499999 8.499998
v -14.499999 -2.499999 8.499998
v -11.999999 -2.500000 9.499999
v -14.499999 -2.500000 9.499999
v -14.499999 -5.500000 8.999999
v -14.499999 -6.500000 8.999999
v -11.999999 -5.500000 8.999999
v -11.999999 -6.500000 8.999999
v -14.499999 -4.500000 9.499999
v -14.499999 -5.500000 8.999999
v -11.999999 -4.500000 9.499999
v -11.999999 -5.500000 8.999999
v -14.499999 -2.500000 9.499999
v -14.499999 -4.500000 9.499999
v -11.999999 -2.500000 9.499999
v -11.999999 -4.500000 9.499999
v -11.999999 -2.500000 9.499999
v -11.999999 -4.500000 9.499999
v -11.999999 -2.499999 8.499998
v -11.999999 -4.500000 8.499998
v 11.999998 -1.500000 8.500000
v 14.499999 -1.500000 8.499999
v 11.999998 -0.500000 9.500000
v 14.499999 -0.500000 9.499999
v 11.999998 -0.500000 8.500000
v 14.499999 -0.500000 8.499999
v 11.999998 -1.500000 8.500000
v 14.499999 -1.500000 8.499999
v 11.999998 -0.500000 9.500000
v 14.499999 -0.500000 9.499999
v 11.999998 -0.500000 8.500000
v 14.499999 -0.500000 8.499999
v 14.999999 -4.500001 8.999999
v 14.999999 -0.500000 9.000000
v 11.499998 -4.500001 8.999999
v 11.499998 -0.500000 9.000000
v 14.499999 -6.500000 8.999999
v 11.999998 -6.500000 8.999999
v 14.499999 -7.500001 9.499999
v 11.999998 -7.500001 9.499999
v 11.999998 -7.500000 8.499999
v 14.499999 -7.500000 8.499999
v 11.999998 -7.500001 9.499999
v 14.499999 -7.500001 9.499999
v 14.499999 -2.499999 8.499998
v 11.999998 -2.499999 8.499998
v 14.499999 -2.500000 9.499999
v 11.999998 -2.500000 9.499999
v 11.999998 -5.500000 8.999999
v 11.999998 -6.500000 8.999999
v 14.499999 -5.500000 8.999999
v 14.499999 -6.500000 8.999999
v 11.999998 -4.500000 9.499999
v 11.999998 -5.500000 8.999999
v 14.499999 -4.500000 9.499999
v 14.499999 -5.500000 8.999999
v 11.999998 -2.500000 9.499999
v 11.999998 -4.500000 9.499999
v 14.499999 -2.500000 9.499999
v 14.499999 -4.500000 9.499999
v 14.499999 -2.500000 9.499999
v 14.499999 -4.500000 9.499999
v 14.499999 -2.499999 8.499998
v 14.499999 -4.500000 8.499998
v 19.999998 4.000000 -3.999999
v 19.999998 1.000000 -9.499999
v -19.999998 4.000000 -4.000000
v -19.999998 1.000000 -9.499999
v -14.499999 -0.500000 9.500000
v -14.499999 -0.500000 8.500000
v -14.500001 -1.500000 8.500000
v -11.999999 -1.500000 8.499999
v -11.999999 -0.500000 8.499999
v -11.999999 -0.500000 9.499999
v 11.999998 -0.500000 9.500000
v 11.999998 -0.500000 8.500000
v 11.999998 -1.500000 8.500000
v 14.499999 -1.500000 8.499999
v 14.499999 -0.500000 8.499999
v 14.499999 -0.500000 9.499999
vn -1.000000 0.000000 0.000000
vn -1.000000 0.000000 0.000000
vn -1.000000 0.000000 0.000000
vn -1.000000 0.000000 0.000000
vn -1.000000 0.000000 0.000000
vn -1.000000 0.000000 0.000000
vn -1.000000 0.000000 0.000000
vn -1.000000 0.000000 0.000000
vn -1.000000 0.000000 0.000000
vn -1.000000 0.000000 0.000000
vn -1.000000 0.000000 0.000000
vn -1.000000 0.000000 0.000000
vn -1.000000 0.000000 0.000000
vn -1.000000 0.000000 0.000000
vn -1.000000 0.000000 0.000000
vn -1.000000 0.000000 0.000000
vn 1.000000 0.000000 0.000000
vn 1.000000 0.000000 0.000000
vn 1.000000 0.000000 0.000000
vn 1.000000 0.000000 0.000000
vn 1.000000 0.000000 0.000000
vn 1.000000 0.000000 0.000000
vn 1.000000 0.000000 0.000000
vn 1.000000 0.000000 0.000000
vn 1.000000 0.000000 0.000000
vn 1.000000 0.000000 0.000000
vn 1.000000 0.000000 0.000000
vn 1.000000 0.000000 0.000000
vn 0.000000 -1.000000 0.000000
vn 0.000000 -1.000000 0.000000
vn 0.000000 -1.000000 0.000000
vn 0.000000 -1.000000 0.000000
vn 0.000000 1.000000 -0.000000
vn 0.000000 1.000000 -0.000000
vn 0.000000 1.000000 -0.000000
vn 0.000000 1.000000 -0.000000
vn 0.000000 0.000000 1.000000
vn 0.000000 0.000000 1.000000
vn 0.000000 0.000000 1.000000
vn 0.000000 0.000000 1.000000
vn 1.000000 0.000000 0.000000
vn 1.000000 0.000000 0.000000
vn 1.000000 0.000000 0.000000
vn 1.000000 0.000000 0.000000
vn 0.000000 -0.000000 -1.000000
vn -0.000000 0.000000 -1.000000
vn -0.000000 0.000000 -1.000000
vn -0.000000 0.000000 -1.000000
vn -1.000000 0.000000 0.000000
vn -1.000000 0.000000 0.000000
vn -1.000000 0.000000 0.000000
vn -1.000000 0.000000 0.000000
vn -0.000000 0.877895 0.478852
vn -0.000000 0.877895 0.478852
vn -0.000000 0.877895 0.478852
vn -0.000000 0.877896 0.478852
vn 1.000000 0.000000 0.000000
vn 1.000000 0.000000 0.000000
vn 1.000000 0.000000 0.000000
vn 1.000000 0.000000 0.000000
vn -1.000000 0.000000 0.000000
vn -1.000000 0.000000 0.000000
vn -1.000000 0.000000 0.000000
vn -1.000000 0.000000 0.000000
vn 0.000000 -0.000000 -1.000000
vn 0.000000 -0.000000 -1.000000
vn 0.000000 -0.000000 -1.000000
vn 0.000000 -0.000000 -1.000000
vn -0.000000 -0.000000 1.000000
vn 0.000000 0.000000 1.000000
vn -0.000000 0.000000 1.000000
vn 0.000000 0.000000 1.000000
vn 1.000000 0.000000 0.000000
vn 1.000000 0.000000 0.000000
vn 1.000000 0.000000 0.000000
vn 1.000000 0.000000 0.000000
vn 0.000000 1.000000 -0.000000
vn 0.000000 1.000000 -0.000000
vn 0.000000 1.000000 -0.000000
vn 0.000000 1.000000 -0.000000
vn -1.000000 0.000000 0.000000
vn -1.000000 0.000000 0.000000
vn -1.000000 0.000000 0.000000
vn -1.000000 0.000000 0.000000
vn 0.000000 0.000000 -1.000000
vn -0.000000 0.000000 -1.000000
vn 0.000000 0.000000 -1.000000
vn 0.000000 0.000000 -1.000000
vn 0.000000 -0.000000 1.000000
vn 0.000000 -0.000000 1.000000
vn -0.000000 -0.000000 1.000000
vn -0.000000 -0.000000 1.000000
vn 0.000000 -1.000000 0.000000
vn 0.000000 -1.000000 0.000000
vn 0.000000 -1.000000 0.000000
vn 0.000000 -1.000000 0.000000
vn -0.800000 0.600000 -0.000000
vn -0.800000 0.600000 -0.000000
vn -0.800000 0.600000 -0.000000
vn -0.800000 0.600000 -0.000000
vn 0.000000 1.000000 -0.000000
vn 0.000000 1.000000 -0.000000
vn 0.000000 1.000000 -0.000000
vn 0.000000 1.000000 -0.000000
vn -0.000000 -0.000000 -1.000000
vn 0.000000 0.000000 -1.000000
vn 0.000000 -0.000000 -1.000000
vn 0.000000 0.000000 -1.000000
vn 0.000000 0.000000 1.000000
vn 0.000000 -0.000000 1.000000
vn 0.000000 -0.000000 1.000000
vn -0.000000 -0.000000 1.000000
vn -0.707107 -0.707107 0.000000
vn -0.707107 -0.707107 0.000000
vn -0.707107 -0.707107 0.000000
vn -0.707107 -0.707107 0.000000
vn 0.800000 0.600000 0.000000
vn 0.800000 0.600000 0.000000
vn 0.800000 0.600000 0.000000
vn 0.800000 0.600000 -0.000000
vn 0.000000 -0.000000 -1.000000
vn -0.000000 -0.000000 -1.000000
vn 0.000000 -0.000000 -1.000000
vn 0.000000 -0.000000 -1.000000
vn 0.000000 0.000000 1.000000
vn 0.000000 0.000000 1.000000
vn 0.000000 0.000000 1.000000
vn 0.000000 -0.000000 1.000000
vn -0.000000 0.000000 -1.000000
vn 0.000000 -0.000000 -1.000000
vn 0.000000 0.000000 -1.000000
vn 0.000000 -0.000000 -1.000000
vn 0.000000 -0.000000 1.000000
vn -0.000000 -0.000000 1.000000
vn -0.000000 -0.000000 1.000000
vn -0.000000 0.000000 1.000000
vn 0.707107 -0.707107 0.000000
vn 0.707107 -0.707107 0.000000
vn 0.707107 -0.707107 0.000000
vn 0.707107 -0.707107 0.000000
vn 0.000000 1.000000 -0.000000
vn 0.000000 1.000000 -0.000000
vn 0.000000 1.000000 -0.000000
vn 0.000000 1.000000 -0.000000
vn 0.000000 -0.707107 0.707107
vn 0.000000 -0.707107 0.707107
vn 0.000000 -0.707107 0.707107
vn 0.000000 -0.707107 0.707107
vn -0.000000 0.000000 -1.000000
vn -0.000000 0.000000 -1.000000
vn -0.000000 0.000000 -1.000000
vn -0.000000 -0.000000 -1.000000
vn 0.000000 1.000000 -0.000000
vn 0.000000 1.000000 -0.000000
vn 0.000000 1.000000 -0.000000
vn 0.000000 1.000000 -0.000000
vn 0.000000 -0.000000 1.000000
vn 0.000000 -0.000000 1.000000
vn 0.000000 -0.000000 1.000000
vn 0.000000 -0.000000 1.000000
vn 0.000000 0.447213 0.894427
vn 0.000000 0.447213 0.894427
vn 0.000000 0.447213 0.894427
vn 0.000000 0.447213 0.894427
vn 0.000000 -1.000000 -0.000001
vn 0.000000 -1.000000 -0.000001
vn 0.000000 -1.000000 -0.000001
vn 0.000000 -1.000000 -0.000001
vn 0.000000 1.000000 0.000001
vn 0.000000 1.000000 0.000001
vn 0.000000 1.000000 0.000001
vn 0.000000 1.000000 0.000001
vn 0.000000 0.000000 1.000000
vn 0.000000 0.000000 1.000000
vn 0.000000 0.000000 1.000000
vn 0.000000 0.000000 1.000000
vn 0.000000 -0.447214 0.894427
vn 0.000000 -0.447214 0.894427
vn 0.000000 -0.447214 0.894427
vn 0.000000 -0.447214 0.894427
vn 0.000000 0.000000 1.000000
vn 0.000000 0.000000 1.000000
vn 0.000000 0.000000 1.000000
vn 0.000000 0.000000 1.000000
vn 1.000000 0.000000 0.000000
vn 1.000000 0.000000 0.000000
vn 1.000000 0.000000 0.000000
vn 1.000000 0.000000 0.000000
vn 0.000000 -0.707107 0.707106
vn 0.000000 -0.707107 0.707106
vn 0.000000 -0.707107 0.707106
vn 0.000000 -0.707107 0.707106
vn -0.000000 -0.000000 -1.000000
vn -0.000000 -0.000000 -1.000000
vn -0.000000 -0.000000 -1.000000
vn -0.000000 -0.000000 -1.000000
vn 0.000000 1.000000 -0.000000
vn 0.000000 1.000000 -0.000000
vn 0.000000 1.000000 -0.000000
vn 0.000000 1.000000 -0.000000
vn 0.000000 -0.000000 1.000000
vn 0.000000 -0.000000 1.000000
vn 0.000000 -0.000000 1.000000
vn 0.000000 -0.000000 1.000000
vn 0.000000 0.447213 0.894427
vn 0.000000 0.447213 0.894427
vn 0.000000 0.447213 0.894427
vn 0.000000 0.447213 0.894427
vn 0.000000 -1.000000 -0.000001
vn 0.000000 -1.000000 -0.000001
vn 0.000000 -1.000000 -0.000001
vn 0.000000 -1.000000 -0.000001
vn 0.000000 1.000000 0.000001
vn 0.000000 1.000000 0.000001
vn 0.000000 1.000000 0.000001
vn 0.000000 1.000000 0.000001
vn 0.000000 0.000000 1.000000
vn 0.000000 0.000000 1.000000
vn 0.000000 0.000000 1.000000
vn 0.000000 0.000000 1.000000
vn 0.000000 -0.447214 0.894427
vn 0.000000 -0.447214 0.894427
vn 0.000000 -0.447214 0.894427
vn 0.000000 -0.447214 0.894427
vn 0.000000 0.000000 1.000000
vn 0.000000 0.000000 1.000000
vn 0.000000 0.000000 1.000000
vn 0.000000 0.000000 1.000000
vn 1.000000 0.000000 0.000000
vn 1.000000 0.000000 0.000000
vn 1.000000 0.000000 0.000000
vn 1.000000 0.000000 0.000000
vn 0.000000 0.877896 -0.478852
vn 0.000000 0.877896 -0.478852
vn 0.000000 0.877896 -0.478852
vn 0.000000 0.877896 -0.478852
vn -1.000000 0.000002 -0.000000
vn -1.000000 0.000002 -0.000000
vn -1.000000 0.000002 -0.000000
vn 1.000000 0.000000 0.000000
vn 1.000000 0.000000 0.000000
vn 1.000000 0.000000 0.000000
vn -1.000000 0.000000 0.000000
vn -1.000000 0.000000 0.000000
vn -1.000000 0.000000 0.000000
vn 1.000000 0.000000 0.000000
vn 1.000000 0.000000 0.000000
vn 1.000000 0.000000 0.000000
vt 0.000884 0.999121
vt 0.000884 0.953832
vt 0.000884 0.999121
vt 0.000884 0.953832
vt 0.000884 0.976476
vt 0.000884 0.953832
vt 0.000884 0.976476
vt 0.000884 0.999121
vt 0.000884 0.999121
vt 0.000884 0.953832
vt 0.000884 0.999121
vt 0.000884 0.953832
vt 0.000884 0.976476
vt 0.000884 0.953832
vt 0.000884 0.976476
vt 0.000884 0.999121
vt 0.139962 0.999121
vt 0.139962 0.953832
vt 0.139962 0.976476
vt 0.139962 0.953832
vt 0.139962 0.976476
vt 0.139962 0.999121
vt 0.139962 0.999121
vt 0.139962 0.953832
vt 0.139962 0.976476
vt 0.139962 0.953832
vt 0.139962 0.976476
vt 0.139962 0.999121
vt 0.454633 0.782621
vt 0.936387 0.782621
vt 0.454633 0.997989
vt 0.936387 0.997989
vt 1.000000 0.293875
vt 1.000000 0.125000
vt 0.000000 0.293875
vt 0.000000 0.125000
vt 0.999500 0.453125
vt 0.000500 0.453125
vt 0.999500 0.702500
vt 0.000500 0.702500
vt 0.000000 0.704250
vt 0.453000 0.704250
vt 0.000000 0.951875
vt 0.453000 0.951875
vt 0.000500 0.453125
vt 0.999501 0.453125
vt 0.000500 0.702500
vt 0.999501 0.702500
vt 0.453000 0.704250
vt 0.000000 0.704250
vt 0.453000 0.951875
vt 0.000000 0.951875
vt 0.000000 0.293000
vt 0.000000 0.448750
vt 1.000000 0.293000
vt 1.000000 0.448750
vt 0.767428 0.704423
vt 0.905090 0.779617
vt 0.592222 0.704423
vt 0.454560 0.779617
vt 0.592221 0.704423
vt 0.454559 0.779617
vt 0.767428 0.704423
vt 0.905090 0.779617
vt 0.849413 0.899781
vt 0.782999 0.899781
vt 0.849413 0.957893
vt 0.782999 0.957893
vt 0.849413 0.899781
vt 0.782999 0.899781
vt 0.849413 0.957893
vt 0.782999 0.957893
vt 0.849413 0.957893
vt 0.849413 0.899781
vt 0.782999 0.957893
vt 0.782999 0.899781
vt 0.849413 0.899781
vt 0.782999 0.899781
vt 0.849413 0.957893
vt 0.782999 0.957893
vt 0.849413 0.957893
vt 0.849413 0.899781
vt 0.782999 0.957893
vt 0.782999 0.899781
vt 0.849413 0.899781
vt 0.782999 0.899781
vt 0.849413 0.957893
vt 0.782999 0.957893
vt 0.849413 0.899781
vt 0.782999 0.899781
vt 0.849413 0.957893
vt 0.782999 0.957893
vt 0.849413 0.899781
vt 0.782999 0.899781
vt 0.849413 0.957893
vt 0.782999 0.957893
vt 0.849413 0.899781
vt 0.782999 0.899781
vt 0.849413 0.957893
vt 0.782999 0.957893
vt 0.849413 0.899781
vt 0.782999 0.899781
vt 0.849413 0.957893
vt 0.782999 0.957893
vt 0.849413 0.899781
vt 0.782999 0.899781
vt 0.849413 0.957893
vt 0.782999 0.957893
vt 0.849413 0.899781
vt 0.782999 0.899781
vt 0.849413 0.957893
vt 0.782999 0.957893
vt 0.849413 0.899781
vt 0.782999 0.899781
vt 0.849413 0.957893
vt 0.782999 0.957893
vt 0.849413 0.899781
vt 0.782999 0.899781
vt 0.849413 0.957893
vt 0.782999 0.957893
vt 0.849413 0.899781
vt 0.782999 0.899781
vt 0.849413 0.957893
vt 0.782999 0.957893
vt 0.849413 0.899781
vt 0.782999 0.899781
vt 0.849413 0.957893
vt 0.782999 0.957893
vt 0.849413 0.899781
vt 0.782999 0.899781
vt 0.849413 0.957893
vt 0.782999 0.957893
vt 0.849413 0.899781
vt 0.782999 0.899781
vt 0.849413 0.957893
vt 0.782999 0.957893
vt 0.849413 0.899781
vt 0.782999 0.899781
vt 0.849413 0.957893
vt 0.782999 0.957893
vt 0.849413 0.899781
vt 0.782999 0.899781
vt 0.849413 0.957893
vt 0.782999 0.957893
vt 0.849413 0.957893
vt 0.849413 0.899781
vt 0.782999 0.957893
vt 0.782999 0.899781
vt 0.849413 0.957893
vt 0.849413 0.899781
vt 0.782999 0.957893
vt 0.782999 0.899781
vt 0.849413 0.957893
vt 0.849413 0.899781
vt 0.782999 0.957893
vt 0.782999 0.899781
vt 0.992456 0.710991
vt 0.913930 0.710991
vt 0.992456 0.773121
vt 0.913930 0.773121
vt 0.139962 0.976476
vt 0.000884 0.976476
vt 0.139962 0.999121
vt 0.000884 0.999121
vt 0.000884 0.953832
vt 0.139962 0.953832
vt 0.000884 0.999121
vt 0.139962 0.999121
vt 0.139962 0.953832
vt 0.000884 0.953832
vt 0.139962 0.999121
vt 0.000884 0.999121
vt 0.000884 0.976476
vt 0.000884 0.976476
vt 0.139962 0.976476
vt 0.139962 0.976476
vt 0.000884 0.999121
vt 0.000884 0.976476
vt 0.139962 0.999121
vt 0.139962 0.976476
vt 0.000884 0.999121
vt 0.000884 0.999121
vt 0.139962 0.999121
vt 0.139962 0.999121
vt 0.139962 0.999121
vt 0.139962 0.999121
vt 0.139962 0.953832
vt 0.139962 0.953832
vt 0.849413 0.957893
vt 0.849413 0.899781
vt 0.782999 0.957893
vt 0.782999 0.899781
vt 0.849413 0.957893
vt 0.849413 0.899781
vt 0.782999 0.957893
vt 0.782999 0.899781
vt 0.849413 0.957893
vt 0.849413 0.899781
vt 0.782999 0.957893
vt 0.782999 0.899781
vt 0.992456 0.710991
vt 0.913930 0.710991
vt 0.992456 0.773121
vt 0.913930 0.773121
vt 0.139962 0.976476
vt 0.000884 0.976476
vt 0.139962 0.999121
vt 0.000884 0.999121
vt 0.000884 0.953832
vt 0.139962 0.953832
vt 0.000884 0.999121
vt 0.139962 0.999121
vt 0.139962 0.953832
vt 0.000884 0.953832
vt 0.139962 0.999121
vt 0.000884 0.999121
vt 0.000884 0.976476
vt 0.000884 0.976476
vt 0.139962 0.976476
vt 0.139962 0.976476
vt 0.000884 0.999121
vt 0.000884 0.976476
vt 0.139962 0.999121
vt 0.139962 0.976476
vt 0.000884 0.999121
vt 0.000884 0.999121
vt 0.139962 0.999121
vt 0.139962 0.999121
vt 0.139962 0.999121
vt 0.139962 0.999121
vt 0.139962 0.953832
vt 0.139962 0.953832
vt 0.000000 0.293000
vt 0.000000 0.448750
vt 1.000000 0.293000
vt 1.000000 0.448750
vt 0.849413 0.899781
vt 0.782999 0.899781
vt 0.782999 0.957893
vt 0.849413 0.899781
vt 0.782999 0.899781
vt 0.782999 0.957893
vt 0.849413 0.899781
vt 0.782999 0.899781
vt 0.782999 0.957893
vt 0.849413 0.899781
vt 0.782999 0.899781
vt 0.782999 0.957893
usemtl material_0
f 1/1/1 2/2/2 3/3/3
f 3/3/3 2/2/2 4/4/4
f 3/3/3 4/4/4 5/5/5
f 5/5/5 4/4/4 6/6/6
f 5/5/5 6/6/6 7/7/7
f 7/7/7 6/6/6 8/8/8
f 9/9/9 10/10/10 11/11/11
f 11/11/11 10/10/10 12/12/12
f 11/11/11 12/12/12 13/13/13
f 13/13/13 12/12/12 14/14/14
f 13/13/13 14/14/14 15/15/15
f 15/15/15 14/14/14 16/16/16
f 17/17/17 18/18/18 19/19/19
f 19/19/19 18/18/18 20/20/20
f 19/19/19 20/20/20 21/21/21
f 21/21/21 20/20/20 22/22/22
f 23/23/23 24/24/24 25/25/25
f 25/25/25 24/24/24 26/26/26
f 25/25/25 26/26/26 27/27/27
f 27/27/27 26/26/26 28/28/28
f 29/29/29 30/30/30 31/31/31
f 31/31/31 30/30/30 32/32/32
f 33/33/33 34/34/34 35/35/35
f 35/35/35 34/34/34 36/36/36
f 37/37/37 38/38/38 39/39/39
f 39/39/39 38/38/38 40/40/40
f 41/41/41 42/42/42 43/43/43
f 43/43/43 42/42/42 44/44/44
f 45/45/45 46/46/46 47/47/47
f 47/47/47 46/46/46 48/48/48
f 49/49/49 50/50/50 51/51/51
f 51/51/51 50/50/50 52/52/52
f 53/53/53 54/54/54 55/55/55
f 55/55/55 54/54/54 56/56/56
f 57/57/57 58/58/58 59/59/59
f 59/59/59 58/58/58 60/60/60
f 61/61/61 62/62/62 63/63/63
f 63/63/63 62/62/62 64/64/64
f 65/65/65 66/66/66 67/67/67
f 67/67/67 66/66/66 68/68/68
f 69/69/69 70/70/70 71/71/71
f 71/71/71 70/70/70 72/72/72
f 73/73/73 74/74/74 75/75/75
f 75/75/75 74/74/74 76/76/76
f 77/77/77 78/78/78 79/79/79
f 79/79/79 78/78/78 80/80/80
f 81/81/81 82/82/82 83/83/83
f 83/83/83 82/82/82 84/84/84
f 85/85/85 86/86/86 87/87/87
f 87/87/87 86/86/86 88/88/88
f 89/89/89 90/90/90 91/91/91
f 91/91/91 90/90/90 92/92/92
f 93/93/93 94/94/94 95/95/95
f 95/95/95 94/94/94 96/96/96
f 97/97/97 98/98/98 99/99/99
f 99/99/99 98/98/98 100/100/100
f 101/101/101 102/102/102 103/103/103
f 103/103/103 102/102/102 104/104/104
f 105/105/105 106/106/106 107/107/107
f 107/107/107 106/106/106 108/108/108
f 109/109/109 110/110/110 111/111/111
f 111/111/111 110/110/110 112/112/112
f 113/113/113 114/114/114 115/115/115
f 115/115/115 114/114/114 116/116/116
f 117/117/117 118/118/118 119/119/119
f 119/119/119 118/118/118 120/120/120
f 121/121/121 122/122/122 123/123/123
f 123/123/123 122/122/122 124/124/124
f 125/125/125 126/126/126 127/127/127
f 127/127/127 126/126/126 128/128/128
f 129/129/129 130/130/130 131/131/131
f 131/131/131 130/130/130 132/132/132
f 133/133/133 134/134/134 135/135/135
f 135/135/135 134/134/134 136/136/136
f 137/137/137 138/138/138 139/139/139
f 139/139/139 138/138/138 140/140/140
f 141/141/141 142/142/142 143/143/143
f 143/143/143 142/142/142 144/144/144
f 145/145/145 146/146/146 147/147/147
f 147/147/147 146/146/146 148/148/148
f 149/149/149 150/150/150 151/151/151
f 151/151/151 150/150/150 152/152/152
f 153/153/153 154/154/154 155/155/155
f 155/155/155 154/154/154 156/156/156
f 157/157/157 158/158/158 159/159/159
f 159/159/159 158/158/158 160/160/160
f 161/161/161 162/162/162 163/163/163
f 163/163/163 162/162/162 164/164/164
f 165/165/165 166/166/166 167/167/167
f 167/167/167 166/166/166 168/168/168
f 169/169/169 170/170/170 171/171/171
f 171/171/171 170/170/170 172/172/172
f 173/173/173 174/174/174 175/175/175
f 175/175/175 174/174/174 176/176/176
f 177/177/177 178/178/178 179/179/179
f 179/179/179 178/178/178 180/180/180
f 181/181/181 182/182/182 183/183/183
f 183/183/183 182/182/182 184/184/184
f 185/185/185 186/186/186 187/187/187
f 187/187/187 186/186/186 188/188/188
f 189/189/189 190/190/190 191/191/191
f 191/191/191 190/190/190 192/192/192
f 193/193/193 194/194/194 195/195/195
f 195/195/195 194/194/194 196/196/196
f 197/197/197 198/198/198 199/199/199
f 199/199/199 198/198/198 200/200/200
f 201/201/201 202/202/202 203/203/203
f 203/203/203 202/202/202 204/204/204
f 205/205/205 206/206/206 207/207/207
f 207/207/207 206/206/206 208/208/208
f 209/209/209 210/210/210 211/211/211
f 211/211/211 210/210/210 212/212/212
f 213/213/213 214/214/214 215/215/215
f 215/215/215 214/214/214 216/216/216
f 217/217/217 218/218/218 219/219/219
f 219/219/219 218/218/218 220/220/220
f 221/221/221 222/222/222 223/223/223
f 223/223/223 222/222/222 224/224/224
f 225/225/225 226/226/226 227/227/227
f 227/227/227 226/226/226 228/228/228
f 229/229/229 230/230/230 231/231/231
f 231/231/231 230/230/230 232/232/232
f 233/233/233 234/234/234 235/235/235
f 235/235/235 234/234/234 236/236/236
f 237/237/237 238/238/238 239/239/239
f 240/240/240 241/241/241 242/242/242
f 243/243/243 244/244/244 245/245/245
f 246/246/246 247/247/247 248/248/248
