# Eraser
mtllib model.mtl
o part_0
v -3.000000 0.800000 0.999999
v -2.500000 -0.800000 1.500000
v -2.500000 0.800000 1.500000
v -1.700000 -0.800000 1.500000
v -1.700000 0.800000 1.500000
v 0.000000 -0.000000 -0.000001
v -3.000000 -0.800000 0.999999
v -2.500000 -0.800000 -1.500000
v -2.500000 -0.800000 1.500000
v -1.700000 -0.800000 -1.500000
v -1.700000 -0.800000 1.500000
v 0.000000 -0.000000 -0.000001
v -3.000000 0.800000 -1.000000
v -2.500000 0.800000 1.500000
v -2.500000 0.800000 -1.500000
v -1.700000 0.800000 1.500000
v -1.700000 0.800000 -1.500000
v 0.000000 -0.000000 -0.000001
v -3.000000 -0.800000 -1.000000
v -2.500000 0.800000 -1.500000
v -2.500000 -0.800000 -1.500000
v -1.700000 0.800000 -1.500000
v -1.700000 -0.800000 -1.500000
v 0.000000 -0.000000 -0.000001
v -1.700000 -0.800000 1.500000
v -1.700000 -0.800000 -1.500000
v 3.000000 -0.800000 1.500000
v 3.000000 -0.800000 -1.500000
v -1.700000 0.800000 1.500000
v 3.000000 0.800000 1.500000
v -1.700000 0.800000 -1.500000
v 3.000000 0.800000 -1.500000
v -1.700000 0.800000 -1.500000
v 3.000000 0.800000 -1.500000
v -1.700000 -0.800000 -1.500000
v 3.000000 -0.800000 -1.500000
v -3.000000 -0.800000 0.999999
v -3.000000 0.800000 0.999999
v -3.000000 -0.800000 -1.000000
v -3.000000 0.800000 -1.000000
v 3.000000 -0.800000 -1.500000
v 3.000000 0.800000 -1.500000
v 3.000000 -0.800000 1.500000
v 3.000000 0.800000 1.500000
v 3.000000 0.800000 1.500000
v -1.700000 0.800000 1.500000
v 3.000000 -0.800000 1.500000
v -1.700000 -0.800000 1.500000
v -3.000000 0.800000 0.999999
v -3.000000 -0.800000 0.999999
v -2.500000 -0.800000 1.500000
v -3.000000 -0.800000 0.999999
v -3.000000 -0.800000 -1.000000
v -2.500000 -0.800000 -1.500000
v -3.000000 0.800000 -1.000000
v -3.000000 0.800000 0.999999
v -2.500000 0.800000 1.500000
v -3.000000 -0.800000 -1.000000
v -3.000000 0.800000 -1.000000
v -2.500000 0.800000 -1.500000
vn -0.980581 0.000000 0.196116
vn -0.485643 0.000000 0.874157
vn -0.231621 0.000000 0.972806
vn -0.000000 0.000000 1.000000
vn -0.000000 0.000000 1.000000
vn 0.000000 0.000000 0.000000
vn 0.000000 -1.000000 0.000000
vn 0.000000 -1.000000 0.000000
vn 0.000000 -1.000000 0.000000
vn 0.000000 -1.000000 0.000000
vn 0.000000 -1.000000 0.000000
vn 0.000000 0.000000 0.000000
vn 0.000000 1.000000 -0.000000
vn 0.000000 1.000000 -0.000000
vn 0.000000 1.000000 -0.000000
vn 0.000000 1.000000 -0.000000
vn 0.000000 1.000000 -0.000000
vn 0.000000 0.000000 0.000000
vn -0.980581 -0.000000 -0.196116
vn -0.485643 -0.000000 -0.874157
vn -0.231620 0.000000 -0.972806
vn 0.000000 0.000000 -1.000000
vn 0.000000 0.000000 -1.000000
vn 0.000000 0.000000 0.000000
vn 0.000000 -1.000000 0.000000
vn 0.000000 -1.000000 0.000000
vn 0.000000 -1.000000 0.000000
vn 0.000000 -1.000000 0.000000
vn 0.000000 1.000000 -0.000000
vn 0.000000 1.000000 -0.000000
vn 0.000000 1.000000 -0.000000
vn 0.000000 1.000000 -0.000000
vn 0.000000 0.000000 -1.000000
vn 0.000000 0.000000 -1.000000
vn 0.000000 0.000000 -1.000000
vn 0.000000 -0.000000 -1.000000
vn -0.980581 0.000000 0.196116
vn -0.980581 0.000000 0.196116
vn -0.980581 -0.000000 -0.196116
vn -0.980581 -0.000000 -0.196116
vn 1.000000 0.000000 0.000000
vn 1.000000 0.000000 0.000000
vn 1.000000 0.000000 0.000000
vn 1.000000 0.000000 0.000000
vn -0.000000 0.000000 1.000000
vn -0.000000 0.000000 1.000000
vn -0.000000 0.000000 1.000000
vn -0.000000 0.000000 1.000000
vn -0.980581 0.000000 0.196116
vn -0.980581 0.000000 0.196116
vn -0.485643 0.000000 0.874157
vn 0.000000 -1.000000 0.000000
vn 0.000000 -1.000000 0.000000
vn 0.000000 -1.000000 0.000000
vn 0.000000 1.000000 -0.000000
vn 0.000000 1.000000 -0.000000
vn 0.000000 1.000000 -0.000000
vn -0.980581 -0.000000 -0.196116
vn -0.980581 -0.000000 -0.196116
vn -0.485643 -0.000000 -0.874157
vt 0.996989 0.499676
vt 0.914200 0.746654
vt 0.914200 0.499676
vt 0.781738 0.746654
vt 0.781738 0.499676
vt 0.000000 1.000000
vt 0.995570 0.084517
vt 0.912878 0.494243
vt 0.912878 0.002571
vt 0.780570 0.494243
vt 0.780570 0.002571
vt 0.000000 1.000000
vt 0.995570 0.412298
vt 0.912878 0.002571
vt 0.912878 0.494243
vt 0.780570 0.002571
vt 0.780570 0.494243
vt 0.000000 1.000000
vt 0.996989 0.746654
vt 0.914200 0.499676
vt 0.914200 0.746654
vt 0.781738 0.499676
vt 0.781738 0.746654
vt 0.000000 1.000000
vt 0.003262 0.002571
vt 0.003262 0.494243
vt 0.780570 0.002571
vt 0.780570 0.494243
vt 0.003262 0.494243
vt 0.780570 0.494243
vt 0.003262 0.002571
vt 0.780570 0.002571
vt 0.003525 0.746654
vt 0.781738 0.746654
vt 0.003525 0.499676
vt 0.781738 0.499676
vt 0.710174 0.645800
vt 0.710174 0.614438
vt 0.678812 0.645800
vt 0.678812 0.614438
vt 0.002787 0.751815
vt 0.002787 0.997670
vt 0.498022 0.751815
vt 0.498022 0.997670
vt 0.781738 0.499676
vt 0.003525 0.499676
vt 0.781738 0.746654
vt 0.003525 0.746654
vt 0.996989 0.499676
vt 0.996989 0.746654
vt 0.914200 0.746654
vt 0.995570 0.084517
vt 0.995570 0.412298
vt 0.912878 0.494243
vt 0.995570 0.412298
vt 0.995570 0.084517
vt 0.912878 0.002571
vt 0.996989 0.746654
vt 0.996989 0.499676
vt 0.914200 0.499676
usemtl material_0
f 1/1/1 2/2/2 3/3/3
f 3/3/3 2/2/2 4/4/4
f 3/3/3 4/4/4 5/5/5
f 7/7/7 8/8/8 9/9/9
f 9/9/9 8/8/8 10/10/10
f 9/9/9 10/10/10 11/11/11
f 13/13/13 14/14/14 15/15/15
f 15/15/15 14/14/14 16/16/16
f 15/15/15 16/16/16 17/17/17
f 19/19/19 20/20/20 21/21/21
f 21/21/21 20/20/20 22/22/22
f 21/21/21 22/22/22 23/23/23
f 25/25/25 26/26/26 27/27/27
f 27/27/27 26/26/26 28/28/28
f 29/29/29 30/30/30 31/31/31
f 31/31/31 30/30/30 32/32/32
f 33/33/33 34/34/34 35/35/35
f 35/35/35 34/34/34 36/36/36
f 37/37/37 38/38/38 39/39/39
f 39/39/39 38/38/38 40/40/40
f 41/41/41 42/42/42 43/43/43
f 43/43/43 42/42/42 44/44/44
f 45/45/45 46/46/46 47/47/47
f 47/47/47 46/46/46 48/48/48
f 49/49/49 50/50/50 51/51/51
f 52/52/52 53/53/53 54/54/54
f 55/55/55 56/56/56 57/57/57
f 58/58/58 59/59/59 60/60/60
