# Banana Bunch
mtllib model.mtl
o part_0
v 0.546958 4.527831 -6.074770
v 1.411390 -0.691087 -5.227817
v 0.712790 4.647509 -7.828373
v 1.808567 -1.208904 -8.663594
v -0.741683 4.647508 -7.828373
v -1.810618 -1.208904 -8.663594
v -0.507667 4.527832 -6.074772
v -1.411372 -0.691087 -5.227820
v 1.479848 4.568133 -4.549629
v 3.488793 0.463872 -1.636647
v 1.616138 4.149834 -5.970687
v 3.993659 -1.237431 -4.656254
v 0.184019 3.964270 -5.895987
v 0.430097 -1.699170 -4.470376
v 0.441431 4.433583 -4.495466
v 0.709414 0.103741 -1.491674
v 2.181305 5.215019 -6.353749
v 4.866592 0.395379 -5.227817
v 2.297957 5.366470 -7.828375
v 5.431980 -0.014170 -8.663593
v 0.901647 5.045810 -7.828377
v 1.957525 -0.812071 -8.663594
v 1.168853 4.982513 -6.214530
v 2.156712 -0.226940 -5.227819
v -2.181304 5.215018 -6.353751
v -2.297956 5.366468 -7.828377
v -4.866593 0.395377 -5.227818
v -5.431980 -0.014172 -8.663596
v -6.486683 -3.761672 -2.399939
v -8.335248 -6.321484 -4.722194
v -6.132347 -5.975535 3.496868
v -6.938714 -7.321638 3.524913
v -1.168853 4.982512 -6.353752
v -2.181304 5.215018 -6.353751
v -2.156711 -0.226941 -5.227820
v -4.866593 0.395377 -5.227818
v -3.454351 -4.458039 -2.399938
v -6.486683 -3.761672 -2.399939
v -4.970470 -6.242360 3.496867
v -6.132347 -5.975535 3.496868
v -1.616046 4.149835 -5.970687
v -0.183927 3.964272 -5.895986
v -3.993564 -1.237430 -4.656256
v -0.430003 -1.699169 -4.470377
v -5.616293 -5.287839 2.147534
v -1.628701 -5.804520 2.355532
v -4.759584 -3.764549 8.570969
v -2.983843 -3.994636 8.663596
v -1.479756 4.568133 -4.549628
v -1.616046 4.149835 -5.970687
v -3.488700 0.463872 -1.636648
v -3.993564 -1.237430 -4.656256
v -4.565269 -1.950064 3.311336
v -5.616293 -5.287839 2.147534
v -4.142535 -2.469203 8.021457
v -4.759584 -3.764549 8.570969
v 0.546958 4.527831 -6.074770
v -1.411372 -0.691087 -5.227820
v 1.411390 -0.691087 -5.227817
v -1.579312 -4.794563 -1.507553
v 1.579331 -4.794563 -1.507553
v -0.605129 -7.227015 3.246064
v 0.605147 -7.227013 3.246064
v 0.000046 -0.139163 0.011615
v 1.479848 4.568133 -4.549629
v 0.709414 0.103741 -1.491674
v 3.488793 0.463872 -1.636647
v 1.455262 -2.353044 3.473564
v 4.565359 -1.950061 3.311337
v 2.950948 -2.623609 8.083619
v 4.142623 -2.469198 8.021460
v 2.181305 5.215019 -6.353749
v 2.156712 -0.226940 -5.227819
v 4.866592 0.395379 -5.227817
v 3.454351 -4.458038 -2.399938
v 6.486682 -3.761669 -2.399938
v 4.970467 -6.242360 3.496869
v 6.132344 -5.975535 3.496869
v 0.000046 -0.139163 0.011615
v -2.025943 -7.563095 -3.829809
v -1.810618 -1.208904 -8.663594
v 2.023892 -7.583143 -3.829809
v 1.808567 -1.208904 -8.663594
v 1.579331 -4.794563 -1.507553
v 1.411390 -0.691087 -5.227817
v 1.579331 -4.794563 -1.507553
v 0.605147 -7.227013 3.246064
v 2.023892 -7.583143 -3.829809
v 0.900703 -8.697062 3.274110
v -2.025943 -7.563095 -3.829809
v -0.902756 -8.697062 3.274109
v 1.628794 -5.804519 2.355535
v 0.430097 -1.699170 -4.470376
v 5.616388 -5.287837 2.147538
v 3.993659 -1.237431 -4.656254
v 4.565359 -1.950061 3.311337
v 3.488793 0.463872 -1.636647
v 4.565359 -1.950061 3.311337
v 4.142623 -2.469198 8.021460
v 5.616388 -5.287837 2.147538
v 4.759673 -3.764544 8.570972
v 1.628794 -5.804519 2.355535
v 2.983932 -3.994632 8.663596
v 4.447363 -7.214327 -4.722192
v 1.957525 -0.812071 -8.663594
v 8.335248 -6.321483 -4.722192
v 5.431980 -0.014170 -8.663593
v 6.486682 -3.761669 -2.399938
v 4.866592 0.395379 -5.227817
v 6.486682 -3.761669 -2.399938
v 6.132344 -5.975535 3.496869
v 8.335248 -6.321483 -4.722192
v 6.938711 -7.321636 3.524915
v 4.447363 -7.214327 -4.722192
v 5.207371 -7.719236 3.524916
v -1.810618 -1.208904 -8.663594
v -2.025943 -7.563095 -3.829809
v -1.411372 -0.691087 -5.227820
v -1.579312 -4.794563 -1.507553
v -0.619540 7.525799 -5.536397
v 0.619556 7.525798 -5.536397
v -0.845796 7.859470 -6.114978
v 0.843740 7.859469 -6.114977
v -0.605129 -7.227015 3.246064
v -0.902756 -8.697062 3.274109
v 0.605147 -7.227013 3.246064
v 0.900703 -8.697062 3.274110
v -2.025943 -7.563095 -3.829809
v -0.902756 -8.697062 3.274109
v -1.579312 -4.794563 -1.507553
v -0.605129 -7.227015 3.246064
v -0.741683 4.647508 -7.828373
v -0.845796 7.859470 -6.114978
v 0.712790 4.647509 -7.828373
v 0.843740 7.859469 -6.114977
v -0.507667 4.527832 -6.074772
v -0.619540 7.525799 -5.536397
v -0.741683 4.647508 -7.828373
v -0.845796 7.859470 -6.114978
v 0.546958 4.527831 -6.074770
v 0.619556 7.525798 -5.536397
v -0.507667 4.527832 -6.074772
v -0.619540 7.525799 -5.536397
v 0.712790 4.647509 -7.828373
v 0.843740 7.859469 -6.114977
v 0.546958 4.527831 -6.074770
v 0.619556 7.525798 -5.536397
v 0.430097 -1.699170 -4.470376
v 1.628794 -5.804519 2.355535
v 0.709414 0.103741 -1.491674
v 1.455262 -2.353044 3.473564
v -0.333365 7.463388 -4.829616
v 0.886688 7.621472 -4.893253
v -0.630406 7.420299 -5.736209
v 1.033163 7.635852 -5.822982
v 2.950948 -2.623609 8.083619
v 2.983932 -3.994632 8.663596
v 4.142623 -2.469198 8.021460
v 4.759673 -3.764544 8.570972
v 1.628794 -5.804519 2.355535
v 2.983932 -3.994632 8.663596
v 1.455262 -2.353044 3.473564
v 2.950948 -2.623609 8.083619
v 0.184019 3.964270 -5.895987
v -0.630406 7.420299 -5.736209
v 1.616138 4.149834 -5.970687
v 1.033163 7.635852 -5.822982
v 0.441431 4.433583 -4.495466
v -0.333365 7.463388 -4.829616
v 0.184019 3.964270 -5.895987
v -0.630406 7.420299 -5.736209
v 1.479848 4.568133 -4.549629
v 0.886688 7.621472 -4.893253
v 0.441431 4.433583 -4.495466
v -0.333365 7.463388 -4.829616
v 1.616138 4.149834 -5.970687
v 1.033163 7.635852 -5.822982
v 1.479848 4.568133 -4.549629
v 0.886688 7.621472 -4.893253
v 1.957525 -0.812071 -8.663594
v 4.447363 -7.214327 -4.722192
v 2.156712 -0.226940 -5.227819
v 3.454351 -4.458038 -2.399938
v 0.883908 7.780149 -5.391767
v 0.958489 8.109106 -5.642118
v 0.548073 8.050594 -6.254737
v 0.891768 8.276518 -6.107427
v 4.970467 -6.242360 3.496869
v 5.207371 -7.719236 3.524916
v 6.132344 -5.975535 3.496869
v 6.938711 -7.321636 3.524915
v 4.447363 -7.214327 -4.722192
v 5.207371 -7.719236 3.524916
v 3.454351 -4.458038 -2.399938
v 4.970467 -6.242360 3.496869
v 0.901647 5.045810 -7.828377
v 0.548073 8.050594 -6.254737
v 2.297957 5.366470 -7.828375
v 0.891768 8.276518 -6.107427
v 1.168853 4.982513 -6.214530
v 0.883908 7.780149 -5.391767
v 0.901647 5.045810 -7.828377
v 0.548073 8.050594 -6.254737
v 2.181305 5.215019 -6.353749
v 0.958489 8.109106 -5.642118
v 1.168853 4.982513 -6.214530
v 0.883908 7.780149 -5.391767
v 2.297957 5.366470 -7.828375
v 0.891768 8.276518 -6.107427
v 2.181305 5.215019 -6.353749
v 0.958489 8.109106 -5.642118
v -2.297956 5.366468 -7.828377
v -0.901646 5.045809 -7.828377
v -5.431980 -0.014172 -8.663596
v -1.957522 -0.812073 -8.663594
v -2.156711 -0.226941 -5.227820
v -1.957522 -0.812073 -8.663594
v -1.168853 4.982512 -6.353752
v -0.901646 5.045809 -7.828377
v -5.431980 -0.014172 -8.663596
v -1.957522 -0.812073 -8.663594
v -8.335248 -6.321484 -4.722194
v -4.447361 -7.214329 -4.722193
v -3.454351 -4.458039 -2.399938
v -4.447361 -7.214329 -4.722193
v -2.156711 -0.226941 -5.227820
v -1.957522 -0.812073 -8.663594
v -0.968195 8.311680 -6.047102
v -0.871603 8.109106 -5.340117
v -0.314194 7.967025 -6.243388
v -0.650028 7.863758 -5.536403
v -6.938714 -7.321638 3.524913
v -5.207374 -7.719236 3.524914
v -6.132347 -5.975535 3.496868
v -4.970470 -6.242360 3.496867
v -4.970470 -6.242360 3.496867
v -5.207374 -7.719236 3.524914
v -3.454351 -4.458039 -2.399938
v -4.447361 -7.214329 -4.722193
v -5.207374 -7.719236 3.524914
v -6.938714 -7.321638 3.524913
v -4.447361 -7.214329 -4.722193
v -8.335248 -6.321484 -4.722194
v -0.968195 8.311680 -6.047102
v -0.314194 7.967025 -6.243388
v -2.297956 5.366468 -7.828377
v -0.901646 5.045809 -7.828377
v -0.314194 7.967025 -6.243388
v -0.650028 7.863758 -5.536403
v -0.901646 5.045809 -7.828377
v -1.168853 4.982512 -6.353752
v -0.650028 7.863758 -5.536403
v -0.871603 8.109106 -5.340117
v -1.168853 4.982512 -6.353752
v -2.181304 5.215018 -6.353751
v -0.871603 8.109106 -5.340117
v -0.968195 8.311680 -6.047102
v -2.181304 5.215018 -6.353751
v -2.297956 5.366468 -7.828377
v -3.488700 0.463872 -1.636648
v -0.709322 0.103741 -1.491674
v -1.479756 4.568133 -4.549628
v -0.441340 4.433585 -4.495465
v -0.709322 0.103741 -1.491674
v -0.430003 -1.699169 -4.470377
v -0.441340 4.433585 -4.495465
v -0.183927 3.964272 -5.895986
v -4.565269 -1.950064 3.311336
v -1.455171 -2.353046 3.473562
v -3.488700 0.463872 -1.636648
v -0.709322 0.103741 -1.491674
v -1.455171 -2.353046 3.473562
v -1.628701 -5.804520 2.355532
v -0.709322 0.103741 -1.491674
v -0.430003 -1.699169 -4.470377
v -1.033072 7.635853 -5.822980
v -0.886598 7.621473 -4.893251
v 0.630498 7.420300 -5.736206
v 0.333455 7.463389 -4.829613
v -4.759584 -3.764549 8.570969
v -2.983843 -3.994636 8.663596
v -4.142535 -2.469203 8.021457
v -2.950860 -2.623612 8.083619
v -4.142535 -2.469203 8.021457
v -2.950860 -2.623612 8.083619
v -4.565269 -1.950064 3.311336
v -1.455171 -2.353046 3.473562
v -2.950860 -2.623612 8.083619
v -2.983843 -3.994636 8.663596
v -1.455171 -2.353046 3.473562
v -1.628701 -5.804520 2.355532
v -1.033072 7.635853 -5.822980
v 0.630498 7.420300 -5.736206
v -1.616046 4.149835 -5.970687
v -0.183927 3.964272 -5.895986
v 0.630498 7.420300 -5.736206
v 0.333455 7.463389 -4.829613
v -0.183927 3.964272 -5.895986
v -0.441340 4.433585 -4.495465
v 0.333455 7.463389 -4.829613
v -0.886598 7.621473 -4.893251
v -0.441340 4.433585 -4.495465
v -1.479756 4.568133 -4.549628
v -0.886598 7.621473 -4.893251
v -1.033072 7.635853 -5.822980
v -1.479756 4.568133 -4.549628
v -1.616046 4.149835 -5.970687
v 1.754469 8.611694 -6.359262
v 1.125814 8.362251 -4.875648
v 2.199874 7.680347 -6.523015
v 1.420127 7.327353 -4.717529
v -1.764945 7.448020 -4.846305
v -1.343180 8.452911 -4.875648
v -2.186365 7.445306 -6.608650
v -1.803852 8.697062 -6.337348
v 1.420127 7.327353 -4.717529
v -1.764945 7.448020 -4.846305
v 2.199874 7.680347 -6.523015
v -2.186365 7.445306 -6.608650
v 1.125814 8.362251 -4.875648
v -1.343180 8.452911 -4.875648
v 1.420127 7.327353 -4.717529
v -1.764945 7.448020 -4.846305
v 1.754469 8.611694 -6.359262
v -1.803852 8.697062 -6.337348
v 1.125814 8.362251 -4.875648
v -1.343180 8.452911 -4.875648
v 2.199874 7.680347 -6.523015
v -2.186365 7.445306 -6.608650
v 1.754469 8.611694 -6.359262
v -1.803852 8.697062 -6.337348
v 0.546958 4.527831 -6.074770
v -0.507667 4.527832 -6.074772
v -1.411372 -0.691087 -5.227820
v 1.479848 4.568133 -4.549629
v 0.441431 4.433583 -4.495466
v 0.709414 0.103741 -1.491674
v 2.181305 5.215019 -6.353749
v 1.168853 4.982513 -6.214530
v 2.156712 -0.226940 -5.227819
vn 0.642740 0.034196 0.765321
vn 0.655647 0.440570 0.613209
vn 0.723513 0.329741 -0.606466
vn 0.762003 0.017707 -0.647331
vn -0.769332 0.178668 -0.613356
vn -0.783329 -0.164212 -0.599525
vn -0.664657 0.019970 0.746882
vn -0.670493 0.314047 0.672171
vn 0.632845 0.456010 0.625749
vn 0.553565 0.758104 0.344738
vn 0.651331 0.192380 -0.734001
vn 0.736069 -0.075275 -0.672708
vn -0.778259 -0.238022 -0.581084
vn -0.739246 -0.524485 -0.422411
vn -0.649220 0.134236 0.748661
vn -0.713879 0.427813 0.554394
vn 0.638749 0.331115 0.694523
vn 0.505434 0.577375 0.641229
vn 0.590273 0.578132 -0.563331
vn 0.694097 0.305854 -0.651676
vn -0.799544 0.033091 -0.599695
vn -0.692685 -0.387144 -0.608528
vn -0.538641 -0.146731 0.829660
vn -0.707020 0.034324 0.706360
vn -0.596547 0.289289 0.748628
vn -0.587446 0.576662 -0.567775
vn -0.505434 0.577375 0.641229
vn -0.694097 0.305854 -0.651677
vn -0.446513 0.790234 0.419710
vn -0.913152 -0.157173 -0.376099
vn -0.598943 0.742499 0.299938
vn -0.666273 -0.745370 0.022431
vn 0.700703 -0.212871 0.680956
vn -0.596547 0.289289 0.748628
vn 0.722318 0.034307 0.690710
vn -0.505434 0.577375 0.641229
vn 0.794870 0.271076 0.542862
vn -0.446513 0.790234 0.419710
vn 0.590908 0.717400 0.369006
vn -0.598943 0.742499 0.299938
vn -0.651331 0.192380 -0.734001
vn 0.778260 -0.238022 -0.581083
vn -0.736068 -0.075275 -0.672709
vn 0.739246 -0.524485 -0.422411
vn -0.866449 -0.458243 -0.198191
vn 0.642960 -0.757643 0.112163
vn -0.599406 -0.757209 0.259513
vn 0.813547 -0.449605 0.368778
vn -0.632846 0.456009 0.625749
vn -0.651331 0.192380 -0.734001
vn -0.553566 0.758103 0.344738
vn -0.736068 -0.075275 -0.672709
vn -0.546728 0.823840 0.149587
vn -0.866449 -0.458243 -0.198191
vn -0.714220 0.693526 0.094398
vn -0.599406 -0.757209 0.259513
vn 0.642740 0.034196 0.765321
vn -0.670493 0.314047 0.672171
vn 0.655647 0.440570 0.613209
vn -0.635098 0.556857 0.535313
vn 0.662783 0.596421 0.452770
vn -0.375257 0.791724 0.482032
vn 0.818278 0.454559 0.351849
vn 0.000000 0.000000 0.000000
vn 0.632845 0.456010 0.625749
vn -0.713879 0.427813 0.554394
vn 0.553565 0.758104 0.344738
vn -0.714127 0.593269 0.371557
vn 0.546727 0.823840 0.149587
vn -0.484772 0.849755 0.207151
vn 0.714220 0.693527 0.094399
vn 0.638749 0.331115 0.694523
vn -0.707020 0.034324 0.706360
vn 0.505434 0.577375 0.641229
vn -0.794871 0.271076 0.542861
vn 0.446513 0.790234 0.419710
vn -0.590908 0.717400 0.369006
vn 0.598943 0.742499 0.299939
vn 0.000000 0.000000 0.000000
vn -0.769321 -0.606026 -0.202182
vn -0.783329 -0.164212 -0.599525
vn 0.785246 -0.513556 -0.345902
vn 0.762003 0.017707 -0.647331
vn 0.662783 0.596421 0.452770
vn 0.655647 0.440570 0.613209
vn 0.662783 0.596421 0.452770
vn 0.818278 0.454559 0.351849
vn 0.785246 -0.513556 -0.345902
vn 0.473405 -0.878496 -0.064279
vn -0.769321 -0.606026 -0.202182
vn -0.919561 -0.366918 0.140638
vn -0.642960 -0.757643 0.112163
vn -0.739246 -0.524485 -0.422411
vn 0.866449 -0.458243 -0.198190
vn 0.736069 -0.075275 -0.672708
vn 0.546727 0.823840 0.149587
vn 0.553565 0.758104 0.344738
vn 0.546727 0.823840 0.149587
vn 0.714220 0.693527 0.094399
vn 0.866449 -0.458243 -0.198190
vn 0.599406 -0.757209 0.259514
vn -0.642960 -0.757643 0.112163
vn -0.813547 -0.449605 0.368777
vn -0.537325 -0.816318 -0.211914
vn -0.692685 -0.387144 -0.608528
vn 0.913152 -0.157173 -0.376099
vn 0.694097 0.305854 -0.651676
vn 0.446513 0.790234 0.419710
vn 0.505434 0.577375 0.641229
vn 0.446513 0.790234 0.419710
vn 0.598943 0.742499 0.299939
vn 0.913152 -0.157173 -0.376099
vn 0.666274 -0.745370 0.022431
vn -0.537325 -0.816318 -0.211914
vn -0.739173 -0.668531 0.081794
vn -0.783329 -0.164212 -0.599525
vn -0.769321 -0.606026 -0.202182
vn -0.670493 0.314047 0.672171
vn -0.635098 0.556857 0.535313
vn -0.707326 0.166166 0.687080
vn 0.258078 0.355010 0.898534
vn -0.348379 0.919437 -0.182392
vn 0.855981 0.516892 0.010919
vn -0.000000 0.019074 0.999818
vn -0.000000 0.019074 0.999818
vn -0.000000 0.019074 0.999818
vn -0.000000 0.019075 0.999818
vn -0.769321 -0.606026 -0.202182
vn -0.919561 -0.366918 0.140638
vn -0.635098 0.556857 0.535313
vn -0.375257 0.791724 0.482032
vn -0.769332 0.178668 -0.613356
vn -0.348379 0.919437 -0.182392
vn 0.723513 0.329741 -0.606466
vn 0.855981 0.516892 0.010919
vn -0.664657 0.019970 0.746882
vn -0.707326 0.166166 0.687080
vn -0.769332 0.178668 -0.613356
vn -0.348379 0.919437 -0.182392
vn 0.642740 0.034196 0.765321
vn 0.258078 0.355010 0.898534
vn -0.664657 0.019970 0.746882
vn -0.707326 0.166166 0.687080
vn 0.723513 0.329741 -0.606466
vn 0.855981 0.516892 0.010919
vn 0.642740 0.034196 0.765321
vn 0.258078 0.355010 0.898534
vn -0.739246 -0.524485 -0.422411
vn -0.642960 -0.757643 0.112163
vn -0.713879 0.427813 0.554394
vn -0.714127 0.593269 0.371557
vn -0.758593 0.257232 0.598639
vn 0.235287 0.730362 0.641258
vn -0.461275 0.649263 -0.604717
vn 0.739889 0.583178 -0.335363
vn -0.002435 0.389549 0.921003
vn -0.002435 0.389549 0.921003
vn -0.002435 0.389549 0.921003
vn -0.002435 0.389549 0.921003
vn -0.642960 -0.757643 0.112163
vn -0.813547 -0.449605 0.368777
vn -0.714127 0.593269 0.371557
vn -0.484772 0.849755 0.207151
vn -0.778259 -0.238022 -0.581084
vn -0.461275 0.649263 -0.604717
vn 0.651331 0.192380 -0.734001
vn 0.739889 0.583178 -0.335363
vn -0.649220 0.134236 0.748661
vn -0.758593 0.257232 0.598639
vn -0.778259 -0.238022 -0.581084
vn -0.461275 0.649263 -0.604717
vn 0.632845 0.456010 0.625749
vn 0.235287 0.730362 0.641258
vn -0.649220 0.134236 0.748661
vn -0.758593 0.257232 0.598639
vn 0.651331 0.192380 -0.734001
vn 0.739889 0.583178 -0.335363
vn 0.632845 0.456010 0.625749
vn 0.235287 0.730362 0.641258
vn -0.692685 -0.387144 -0.608528
vn -0.537325 -0.816318 -0.211914
vn -0.707020 0.034324 0.706360
vn -0.794871 0.271076 0.542861
vn -0.818060 0.056070 0.572394
vn 0.266018 0.553472 0.789242
vn -0.755140 0.619219 -0.215247
vn 0.524597 0.835330 -0.164381
vn -0.004205 0.018313 0.999823
vn -0.004205 0.018312 0.999823
vn -0.004205 0.018312 0.999823
vn -0.004205 0.018312 0.999823
vn -0.537325 -0.816318 -0.211914
vn -0.739173 -0.668531 0.081794
vn -0.794871 0.271076 0.542861
vn -0.590908 0.717400 0.369006
vn -0.799544 0.033091 -0.599695
vn -0.755140 0.619219 -0.215247
vn 0.590273 0.578132 -0.563331
vn 0.524597 0.835330 -0.164381
vn -0.538641 -0.146731 0.829660
vn -0.818060 0.056070 0.572394
vn -0.799544 0.033091 -0.599695
vn -0.755140 0.619219 -0.215247
vn 0.638749 0.331115 0.694523
vn 0.266018 0.553472 0.789242
vn -0.538641 -0.146731 0.829660
vn -0.818060 0.056070 0.572394
vn 0.590273 0.578132 -0.563331
vn 0.524597 0.835330 -0.164381
vn 0.638749 0.331115 0.694523
vn 0.266018 0.553472 0.789242
vn -0.587446 0.576662 -0.567775
vn 0.805058 -0.014841 -0.593010
vn -0.694097 0.305854 -0.651677
vn 0.693899 -0.387975 -0.606613
vn 0.722318 0.034307 0.690710
vn 0.693899 -0.387975 -0.606613
vn 0.700703 -0.212871 0.680956
vn 0.805058 -0.014841 -0.593010
vn -0.694097 0.305854 -0.651677
vn 0.693899 -0.387975 -0.606613
vn -0.913152 -0.157173 -0.376099
vn 0.537325 -0.816318 -0.211913
vn 0.794870 0.271076 0.542862
vn 0.537325 -0.816318 -0.211913
vn 0.722318 0.034307 0.690710
vn 0.693899 -0.387975 -0.606613
vn -0.538997 0.830170 -0.142480
vn 0.253347 0.326219 0.910712
vn 0.755027 0.604663 -0.253608
vn 0.849297 -0.145572 0.507448
vn 0.004205 0.018312 0.999823
vn 0.004206 0.018312 0.999823
vn 0.004206 0.018312 0.999823
vn 0.004206 0.018313 0.999823
vn 0.590908 0.717400 0.369006
vn 0.739173 -0.668530 0.081795
vn 0.794870 0.271076 0.542862
vn 0.537325 -0.816318 -0.211913
vn 0.739173 -0.668530 0.081795
vn -0.666273 -0.745370 0.022431
vn 0.537325 -0.816318 -0.211913
vn -0.913152 -0.157173 -0.376099
vn -0.538997 0.830170 -0.142480
vn 0.755027 0.604663 -0.253608
vn -0.587446 0.576662 -0.567775
vn 0.805058 -0.014841 -0.593010
vn 0.755027 0.604663 -0.253608
vn 0.849297 -0.145572 0.507448
vn 0.805058 -0.014841 -0.593010
vn 0.700703 -0.212871 0.680956
vn 0.849297 -0.145572 0.507448
vn 0.253347 0.326219 0.910712
vn 0.700703 -0.212871 0.680956
vn -0.596547 0.289289 0.748628
vn 0.253347 0.326219 0.910712
vn -0.538997 0.830170 -0.142480
vn -0.596547 0.289289 0.748628
vn -0.587446 0.576662 -0.567775
vn -0.553566 0.758103 0.344738
vn 0.713879 0.427814 0.554394
vn -0.632846 0.456009 0.625749
vn 0.649220 0.134236 0.748662
vn 0.713879 0.427814 0.554394
vn 0.739246 -0.524485 -0.422411
vn 0.649220 0.134236 0.748662
vn 0.778260 -0.238022 -0.581083
vn -0.546728 0.823840 0.149587
vn 0.714126 0.593269 0.371557
vn -0.553566 0.758103 0.344738
vn 0.713879 0.427814 0.554394
vn 0.714126 0.593269 0.371557
vn 0.642960 -0.757643 0.112163
vn 0.713879 0.427814 0.554394
vn 0.739246 -0.524485 -0.422411
vn -0.739889 0.583178 -0.335363
vn -0.235288 0.730362 0.641258
vn 0.461276 0.649264 -0.604716
vn 0.758592 0.257233 0.598639
vn 0.002433 0.389549 0.921003
vn 0.002433 0.389549 0.921003
vn 0.002433 0.389549 0.921003
vn 0.002432 0.389548 0.921003
vn -0.714220 0.693526 0.094398
vn 0.484772 0.849756 0.207152
vn -0.546728 0.823840 0.149587
vn 0.714126 0.593269 0.371557
vn 0.484772 0.849756 0.207152
vn 0.813547 -0.449605 0.368778
vn 0.714126 0.593269 0.371557
vn 0.642960 -0.757643 0.112163
vn -0.739889 0.583178 -0.335363
vn 0.461276 0.649264 -0.604716
vn -0.651331 0.192380 -0.734001
vn 0.778260 -0.238022 -0.581083
vn 0.461276 0.649264 -0.604716
vn 0.758592 0.257233 0.598639
vn 0.778260 -0.238022 -0.581083
vn 0.649220 0.134236 0.748662
vn 0.758592 0.257233 0.598639
vn -0.235288 0.730362 0.641258
vn 0.649220 0.134236 0.748662
vn -0.632846 0.456009 0.625749
vn -0.235288 0.730362 0.641258
vn -0.739889 0.583178 -0.335363
vn -0.632846 0.456009 0.625749
vn -0.651331 0.192380 -0.734001
vn 0.448269 0.378117 -0.809989
vn 0.649393 0.301955 0.697934
vn 0.899507 0.430457 -0.074796
vn 0.314597 0.194409 0.929104
vn -0.588898 0.269417 0.761980
vn -0.573385 0.245164 0.781744
vn -0.723387 0.393035 -0.567657
vn -0.764912 0.350827 -0.540213
vn -0.028835 -0.978592 -0.203780
vn 0.012515 -0.994056 -0.108145
vn 0.012515 -0.994056 -0.108145
vn 0.053726 -0.998492 -0.011309
vn 0.649393 0.301955 0.697934
vn -0.573385 0.245164 0.781744
vn 0.314597 0.194409 0.929104
vn -0.588898 0.269417 0.761980
vn 0.024693 0.984095 0.175920
vn 0.030479 0.985868 0.164730
vn 0.030479 0.985868 0.164730
vn 0.036260 0.987481 0.153513
vn 0.899507 0.430457 -0.074796
vn -0.723387 0.393035 -0.567657
vn 0.448269 0.378117 -0.809989
vn -0.764912 0.350827 -0.540213
vn 0.642740 0.034196 0.765321
vn -0.664657 0.019970 0.746882
vn -0.670493 0.314047 0.672171
vn 0.632845 0.456010 0.625749
vn -0.649220 0.134236 0.748661
vn -0.713879 0.427813 0.554394
vn 0.638749 0.331115 0.694523
vn -0.538641 -0.146731 0.829660
vn -0.707020 0.034324 0.706360
vt 0.022356 0.018294
vt 0.022356 0.194073
vt 0.156067 0.018294
vt 0.156067 0.194073
vt 0.022356 0.018294
vt 0.022356 0.194073
vt 0.156067 0.018294
vt 0.156067 0.194073
vt 0.022356 0.018294
vt 0.022356 0.194073
vt 0.156067 0.018294
vt 0.156067 0.194073
vt 0.022356 0.018294
vt 0.022356 0.194073
vt 0.156067 0.018294
vt 0.156067 0.194073
vt 0.022356 0.018294
vt 0.022356 0.194073
vt 0.156067 0.018294
vt 0.156067 0.194073
vt 0.022356 0.018294
vt 0.022356 0.194073
vt 0.156067 0.018294
vt 0.156067 0.194073
vt 0.022356 0.018294
vt 0.156067 0.018294
vt 0.022356 0.194073
vt 0.156067 0.194073
vt 0.022356 0.562158
vt 0.156067 0.562158
vt 0.022356 0.963047
vt 0.156067 0.963047
vt 0.022356 0.018294
vt 0.156067 0.018294
vt 0.022356 0.194073
vt 0.156067 0.194073
vt 0.022356 0.562158
vt 0.156067 0.562158
vt 0.022356 0.963047
vt 0.156067 0.963047
vt 0.156067 0.018294
vt 0.022356 0.018294
vt 0.156067 0.194073
vt 0.022356 0.194073
vt 0.156067 0.562158
vt 0.022356 0.562158
vt 0.156067 0.963047
vt 0.022356 0.963047
vt 0.022356 0.018294
vt 0.156067 0.018294
vt 0.022356 0.194073
vt 0.156067 0.194073
vt 0.022356 0.562158
vt 0.156067 0.562158
vt 0.022356 0.963047
vt 0.156067 0.963047
vt 0.156067 0.018294
vt 0.022356 0.194073
vt 0.156067 0.194073
vt 0.022356 0.562158
vt 0.156067 0.562158
vt 0.022356 0.963047
vt 0.156067 0.963047
vt 0.000000 1.000000
vt 0.156067 0.018294
vt 0.022356 0.194073
vt 0.156067 0.194073
vt 0.022356 0.562158
vt 0.156067 0.562158
vt 0.022356 0.963047
vt 0.156067 0.963047
vt 0.156067 0.018294
vt 0.022356 0.194073
vt 0.156067 0.194073
vt 0.022356 0.562158
vt 0.156067 0.562158
vt 0.022356 0.963047
vt 0.156067 0.963047
vt 0.000000 1.000000
vt 0.022356 0.562158
vt 0.022356 0.194073
vt 0.156067 0.562158
vt 0.156067 0.194073
vt 0.022356 0.562158
vt 0.022356 0.194073
vt 0.022356 0.562158
vt 0.022356 0.963047
vt 0.156067 0.562158
vt 0.156067 0.963047
vt 0.022356 0.562158
vt 0.022356 0.963047
vt 0.022356 0.562158
vt 0.022356 0.194073
vt 0.156067 0.562158
vt 0.156067 0.194073
vt 0.022356 0.562158
vt 0.022356 0.194073
vt 0.022356 0.562158
vt 0.022356 0.963047
vt 0.156067 0.562158
vt 0.156067 0.963047
vt 0.022356 0.562158
vt 0.022356 0.963047
vt 0.022356 0.562158
vt 0.022356 0.194073
vt 0.156067 0.562158
vt 0.156067 0.194073
vt 0.022356 0.562158
vt 0.022356 0.194073
vt 0.022356 0.562158
vt 0.022356 0.963047
vt 0.156067 0.562158
vt 0.156067 0.963047
vt 0.022356 0.562158
vt 0.022356 0.963047
vt 0.156067 0.562158
vt 0.156067 0.194073
vt 0.022356 0.562158
vt 0.022356 0.194073
vt 0.260924 0.164342
vt 0.260924 0.164342
vt 0.260924 0.164342
vt 0.260924 0.164342
vt 0.736887 0.172096
vt 0.671602 0.232315
vt 0.736887 0.070065
vt 0.671602 0.009846
vt 0.156067 0.827102
vt 0.156067 0.442674
vt 0.022356 0.827102
vt 0.022356 0.442674
vt 0.222389 0.646252
vt 0.222389 0.506298
vt 0.175731 0.646252
vt 0.175731 0.506298
vt 0.222389 0.646329
vt 0.222389 0.506294
vt 0.175731 0.646329
vt 0.175731 0.506294
vt 0.222389 0.646329
vt 0.222389 0.506294
vt 0.175731 0.646329
vt 0.175731 0.506294
vt 0.222389 0.646329
vt 0.222389 0.506294
vt 0.175731 0.646329
vt 0.175731 0.506294
vt 0.156067 0.562158
vt 0.156067 0.194073
vt 0.022356 0.562158
vt 0.022356 0.194073
vt 0.260924 0.164342
vt 0.260924 0.164342
vt 0.260924 0.164342
vt 0.260924 0.164342
vt 0.736887 0.172096
vt 0.671602 0.232315
vt 0.736887 0.070065
vt 0.671602 0.009846
vt 0.156067 0.827102
vt 0.156067 0.442674
vt 0.022356 0.827102
vt 0.022356 0.442674
vt 0.222389 0.646329
vt 0.222389 0.506294
vt 0.175731 0.646329
vt 0.175731 0.506294
vt 0.222389 0.646329
vt 0.222389 0.506294
vt 0.175731 0.646329
vt 0.175731 0.506294
vt 0.222389 0.646329
vt 0.222389 0.506294
vt 0.175731 0.646329
vt 0.175731 0.506294
vt 0.222389 0.646329
vt 0.222389 0.506294
vt 0.175731 0.646329
vt 0.175731 0.506294
vt 0.156067 0.562158
vt 0.156067 0.194073
vt 0.022356 0.562158
vt 0.022356 0.194073
vt 0.260924 0.164342
vt 0.260924 0.164342
vt 0.260924 0.164342
vt 0.260924 0.164342
vt 0.736887 0.172096
vt 0.671602 0.232315
vt 0.736887 0.070065
vt 0.671602 0.009846
vt 0.156067 0.827102
vt 0.156067 0.442674
vt 0.022356 0.827102
vt 0.022356 0.442674
vt 0.222389 0.646252
vt 0.222389 0.506298
vt 0.175731 0.646252
vt 0.175731 0.506298
vt 0.222389 0.646329
vt 0.222389 0.506294
vt 0.175731 0.646329
vt 0.175731 0.506294
vt 0.222389 0.646329
vt 0.222389 0.506294
vt 0.175731 0.646329
vt 0.175731 0.506294
vt 0.222389 0.646329
vt 0.222389 0.506294
vt 0.175731 0.646329
vt 0.175731 0.506294
vt 0.022356 0.018294
vt 0.156067 0.018294
vt 0.022356 0.194073
vt 0.156067 0.194073
vt 0.156067 0.194073
vt 0.022356 0.194073
vt 0.156067 0.018294
vt 0.022356 0.018294
vt 0.156067 0.562158
vt 0.022356 0.562158
vt 0.156067 0.194073
vt 0.022356 0.194073
vt 0.022356 0.194073
vt 0.156067 0.194073
vt 0.022356 0.562158
vt 0.156067 0.562158
vt 0.260924 0.164342
vt 0.260924 0.164342
vt 0.260924 0.164342
vt 0.260924 0.164342
vt 0.671602 0.009846
vt 0.671602 0.232315
vt 0.736887 0.070065
vt 0.736887 0.172096
vt 0.022356 0.442674
vt 0.156067 0.442674
vt 0.022356 0.827102
vt 0.156067 0.827102
vt 0.156067 0.963047
vt 0.022356 0.963047
vt 0.156067 0.562158
vt 0.022356 0.562158
vt 0.222389 0.506298
vt 0.175731 0.506298
vt 0.222389 0.646252
vt 0.175731 0.646252
vt 0.175731 0.506294
vt 0.222389 0.506294
vt 0.175731 0.646329
vt 0.222389 0.646329
vt 0.175731 0.506294
vt 0.222389 0.506294
vt 0.175731 0.646329
vt 0.222389 0.646329
vt 0.175731 0.506294
vt 0.222389 0.506294
vt 0.175731 0.646329
vt 0.222389 0.646329
vt 0.156067 0.194073
vt 0.022356 0.194073
vt 0.156067 0.018294
vt 0.022356 0.018294
vt 0.156067 0.194073
vt 0.022356 0.194073
vt 0.156067 0.018294
vt 0.022356 0.018294
vt 0.243408 0.990860
vt 0.627098 0.990860
vt 0.243408 0.232754
vt 0.627098 0.232754
vt 0.022356 0.194073
vt 0.156067 0.194073
vt 0.022356 0.562158
vt 0.156067 0.562158
vt 0.260924 0.164342
vt 0.260924 0.164342
vt 0.260924 0.164342
vt 0.260924 0.164342
vt 0.671602 0.009846
vt 0.671602 0.232315
vt 0.736887 0.070065
vt 0.736887 0.172096
vt 0.156067 0.963047
vt 0.022356 0.963047
vt 0.156067 0.562158
vt 0.022356 0.562158
vt 0.022356 0.442674
vt 0.156067 0.442674
vt 0.022356 0.827102
vt 0.156067 0.827102
vt 0.175731 0.506294
vt 0.222389 0.506294
vt 0.175731 0.646329
vt 0.222389 0.646329
vt 0.175731 0.506294
vt 0.222389 0.506294
vt 0.175731 0.646329
vt 0.222389 0.646329
vt 0.175731 0.506294
vt 0.222389 0.506294
vt 0.175731 0.646329
vt 0.222389 0.646329
vt 0.175731 0.506294
vt 0.222389 0.506294
vt 0.175731 0.646329
vt 0.222389 0.646329
vt 0.252118 0.090103
vt 0.410984 0.090103
vt 0.252118 0.184503
vt 0.410984 0.184503
vt 0.416024 0.186298
vt 0.416024 0.087184
vt 0.250280 0.186298
vt 0.250280 0.087184
vt 0.286910 0.178443
vt 0.457764 0.173581
vt 0.245082 0.164220
vt 0.480370 0.173690
vt 0.251908 0.087932
vt 0.412672 0.087932
vt 0.251908 0.184135
vt 0.412672 0.184135
vt 0.210728 0.017625
vt 0.392842 0.017625
vt 0.247175 0.076957
vt 0.373020 0.073094
vt 0.251212 0.184465
vt 0.410011 0.184465
vt 0.251212 0.090622
vt 0.410011 0.090622
vt 0.156067 0.018294
vt 0.022356 0.018294
vt 0.022356 0.194073
vt 0.156067 0.018294
vt 0.022356 0.018294
vt 0.022356 0.194073
vt 0.156067 0.018294
vt 0.022356 0.018294
vt 0.022356 0.194073
usemtl material_0
f 1/1/1 2/2/2 3/3/3
f 3/3/3 2/2/2 4/4/4
f 3/3/3 4/4/4 5/5/5
f 5/5/5 4/4/4 6/6/6
f 5/5/5 6/6/6 7/7/7
f 7/7/7 6/6/6 8/8/8
f 9/9/9 10/10/10 11/11/11
f 11/11/11 10/10/10 12/12/12
f 11/11/11 12/12/12 13/13/13
f 13/13/13 12/12/12 14/14/14
f 13/13/13 14/14/14 15/15/15
f 15/15/15 14/14/14 16/16/16
f 17/17/17 18/18/18 19/19/19
f 19/19/19 18/18/18 20/20/20
f 19/19/19 20/20/20 21/21/21
f 21/21/21 20/20/20 22/22/22
f 21/21/21 22/22/22 23/23/23
f 23/23/23 22/22/22 24/24/24
f 25/25/25 26/26/26 27/27/27
f 27/27/27 26/26/26 28/28/28
f 27/27/27 28/28/28 29/29/29
f 29/29/29 28/28/28 30/30/30
f 29/29/29 30/30/30 31/31/31
f 31/31/31 30/30/30 32/32/32
f 33/33/33 34/34/34 35/35/35
f 35/35/35 34/34/34 36/36/36
f 35/35/35 36/36/36 37/37/37
f 37/37/37 36/36/36 38/38/38
f 37/37/37 38/38/38 39/39/39
f 39/39/39 38/38/38 40/40/40
f 41/41/41 42/42/42 43/43/43
f 43/43/43 42/42/42 44/44/44
f 43/43/43 44/44/44 45/45/45
f 45/45/45 44/44/44 46/46/46
f 45/45/45 46/46/46 47/47/47
f 47/47/47 46/46/46 48/48/48
f 49/49/49 50/50/50 51/51/51
f 51/51/51 50/50/50 52/52/52
f 51/51/51 52/52/52 53/53/53
f 53/53/53 52/52/52 54/54/54
f 53/53/53 54/54/54 55/55/55
f 55/55/55 54/54/54 56/56/56
f 57/57/57 58/58/58 59/59/59
f 59/59/59 58/58/58 60/60/60
f 59/59/59 60/60/60 61/61/61
f 61/61/61 60/60/60 62/62/62
f 61/61/61 62/62/62 63/63/63
f 65/65/65 66/66/66 67/67/67
f 67/67/67 66/66/66 68/68/68
f 67/67/67 68/68/68 69/69/69
f 69/69/69 68/68/68 70/70/70
f 69/69/69 70/70/70 71/71/71
f 72/72/72 73/73/73 74/74/74
f 74/74/74 73/73/73 75/75/75
f 74/74/74 75/75/75 76/76/76
f 76/76/76 75/75/75 77/77/77
f 76/76/76 77/77/77 78/78/78
f 80/80/80 81/81/81 82/82/82
f 82/82/82 81/81/81 83/83/83
f 82/82/82 83/83/83 84/84/84
f 84/84/84 83/83/83 85/85/85
f 86/86/86 87/87/87 88/88/88
f 88/88/88 87/87/87 89/89/89
f 88/88/88 89/89/89 90/90/90
f 90/90/90 89/89/89 91/91/91
f 92/92/92 93/93/93 94/94/94
f 94/94/94 93/93/93 95/95/95
f 94/94/94 95/95/95 96/96/96
f 96/96/96 95/95/95 97/97/97
f 98/98/98 99/99/99 100/100/100
f 100/100/100 99/99/99 101/101/101
f 100/100/100 101/101/101 102/102/102
f 102/102/102 101/101/101 103/103/103
f 104/104/104 105/105/105 106/106/106
f 106/106/106 105/105/105 107/107/107
f 106/106/106 107/107/107 108/108/108
f 108/108/108 107/107/107 109/109/109
f 110/110/110 111/111/111 112/112/112
f 112/112/112 111/111/111 113/113/113
f 112/112/112 113/113/113 114/114/114
f 114/114/114 113/113/113 115/115/115
f 116/116/116 117/117/117 118/118/118
f 118/118/118 117/117/117 119/119/119
f 120/120/120 121/121/121 122/122/122
f 122/122/122 121/121/121 123/123/123
f 124/124/124 125/125/125 126/126/126
f 126/126/126 125/125/125 127/127/127
f 128/128/128 129/129/129 130/130/130
f 130/130/130 129/129/129 131/131/131
f 132/132/132 133/133/133 134/134/134
f 134/134/134 133/133/133 135/135/135
f 136/136/136 137/137/137 138/138/138
f 138/138/138 137/137/137 139/139/139
f 140/140/140 141/141/141 142/142/142
f 142/142/142 141/141/141 143/143/143
f 144/144/144 145/145/145 146/146/146
f 146/146/146 145/145/145 147/147/147
f 148/148/148 149/149/149 150/150/150
f 150/150/150 149/149/149 151/151/151
f 152/152/152 153/153/153 154/154/154
f 154/154/154 153/153/153 155/155/155
f 156/156/156 157/157/157 158/158/158
f 158/158/158 157/157/157 159/159/159
f 160/160/160 161/161/161 162/162/162
f 162/162/162 161/161/161 163/163/163
f 164/164/164 165/165/165 166/166/166
f 166/166/166 165/165/165 167/167/167
f 168/168/168 169/169/169 170/170/170
f 170/170/170 169/169/169 171/171/171
f 172/172/172 173/173/173 174/174/174
f 174/174/174 173/173/173 175/175/175
f 176/176/176 177/177/177 178/178/178
f 178/178/178 177/177/177 179/179/179
f 180/180/180 181/181/181 182/182/182
f 182/182/182 181/181/181 183/183/183
f 184/184/184 185/185/185 186/186/186
f 186/186/186 185/185/185 187/187/187
f 188/188/188 189/189/189 190/190/190
f 190/190/190 189/189/189 191/191/191
f 192/192/192 193/193/193 194/194/194
f 194/194/194 193/193/193 195/195/195
f 196/196/196 197/197/197 198/198/198
f 198/198/198 197/197/197 199/199/199
f 200/200/200 201/201/201 202/202/202
f 202/202/202 201/201/201 203/203/203
f 204/204/204 205/205/205 206/206/206
f 206/206/206 205/205/205 207/207/207
f 208/208/208 209/209/209 210/210/210
f 210/210/210 209/209/209 211/211/211
f 212/212/212 213/213/213 214/214/214
f 214/214/214 213/213/213 215/215/215
f 216/216/216 217/217/217 218/218/218
f 218/218/218 217/217/217 219/219/219
f 220/220/220 221/221/221 222/222/222
f 222/222/222 221/221/221 223/223/223
f 224/224/224 225/225/225 226/226/226
f 226/226/226 225/225/225 227/227/227
f 228/228/228 229/229/229 230/230/230
f 230/230/230 229/229/229 231/231/231
f 232/232/232 233/233/233 234/234/234
f 234/234/234 233/233/233 235/235/235
f 236/236/236 237/237/237 238/238/238
f 238/238/238 237/237/237 239/239/239
f 240/240/240 241/241/241 242/242/242
f 242/242/242 241/241/241 243/243/243
f 244/244/244 245/245/245 246/246/246
f 246/246/246 245/245/245 247/247/247
f 248/248/248 249/249/249 250/250/250
f 250/250/250 249/249/249 251/251/251
f 252/252/252 253/253/253 254/254/254
f 254/254/254 253/253/253 255/255/255
f 256/256/256 257/257/257 258/258/258
f 258/258/258 257/257/257 259/259/259
f 260/260/260 261/261/261 262/262/262
f 262/262/262 261/261/261 263/263/263
f 264/264/264 265/265/265 266/266/266
f 266/266/266 265/265/265 267/267/267
f 268/268/268 269/269/269 270/270/270
f 270/270/270 269/269/269 271/271/271
f 272/272/272 273/273/273 274/274/274
f 274/274/274 273/273/273 275/275/275
f 276/276/276 277/277/277 278/278/278
f 278/278/278 277/277/277 279/279/279
f 280/280/280 281/281/281 282/282/282
f 282/282/282 281/281/281 283/283/283
f 284/284/284 285/285/285 286/286/286
f 286/286/286 285/285/285 287/287/287
f 288/288/288 289/289/289 290/290/290
f 290/290/290 289/289/289 291/291/291
f 292/292/292 293/293/293 294/294/294
f 294/294/294 293/293/293 295/295/295
f 296/296/296 297/297/297 298/298/298
f 298/298/298 297/297/297 299/299/299
f 300/300/300 301/301/301 302/302/302
f 302/302/302 301/301/301 303/303/303
f 304/304/304 305/305/305 306/306/306
f 306/306/306 305/305/305 307/307/307
f 308/308/308 309/309/309 310/310/310
f 310/310/310 309/309/309 311/311/311
f 312/312/312 313/313/313 314/314/314
f 314/314/314 313/313/313 315/315/315
f 316/316/316 317/317/317 318/318/318
f 318/318/318 317/317/317 319/319/319
f 320/320/320 321/321/321 322/322/322
f 322/322/322 321/321/321 323/323/323
f 324/324/324 325/325/325 326/326/326
f 326/326/326 325/325/325 327/327/327
f 328/328/328 329/329/329 330/330/330
f 330/330/330 329/329/329 331/331/331
f 332/332/332 333/333/333 334/334/334
f 335/335/335 336/336/336 337/337/337
f 338/338/338 339/339/339 340/340/340
