# Red Paint
mtllib model.mtl
o part_0
v 5.543277 6.250000 -1.740513
v 5.543277 -6.250000 -1.740513
v 2.296100 6.250000 -4.987689
v 2.296100 -6.250000 -4.987689
v -2.296101 6.250000 -4.987689
v -2.296101 -6.250000 -4.987689
v -5.543277 6.250000 -1.740511
v -5.543277 -6.250000 -1.740511
v -5.543276 6.250000 2.851690
v -5.543276 -6.250000 2.851690
v -5.543276 6.250000 2.851690
v -5.543276 -6.250000 2.851690
v -2.296099 6.250000 6.098866
v -2.296099 -6.250000 6.098866
v 2.296102 6.250000 6.098865
v 2.296102 -6.250000 6.098865
v 5.543278 6.250000 2.851687
v 5.543278 -6.250000 2.851687
v 5.543277 6.250000 -1.740513
v 5.543277 -6.250000 -1.740513
v -5.543276 -6.250000 2.851690
v -5.543277 -6.250000 -1.740511
v 5.543277 -6.250000 -1.740513
v -2.296101 -6.250000 -4.987689
v 2.296100 -6.250000 -4.987689
v 0.000000 0.000000 0.555588
v -5.543276 6.250000 2.851690
v 5.543278 6.250000 2.851687
v -5.543277 6.250000 -1.740511
v 5.543277 6.250000 -1.740513
v 2.296100 6.250000 -4.987689
v 0.000000 0.000000 0.555588
v 6.000000 1.789540 -3.438934
v 2.296100 -0.072964 -6.098866
v 0.000001 4.586534 0.555587
v -2.296101 -0.072964 -6.098866
v -6.000000 1.789540 -3.438934
v 0.000000 0.000000 0.555588
v -6.000000 1.789540 -3.438934
v -2.296101 -0.072964 -6.098866
v 0.000001 4.586534 0.555587
v 2.296100 -0.072964 -6.098866
v 6.000000 1.789540 -3.438934
v 0.000000 0.000000 0.555588
v -2.296099 -6.250000 6.098866
v -5.543276 -6.250000 2.851690
v 2.296102 -6.250000 6.098865
v 5.543278 -6.250000 2.851687
v 2.296102 6.250000 6.098865
v 5.543278 6.250000 2.851687
v -2.296099 6.250000 6.098866
v -5.543276 6.250000 2.851690
v 5.543277 -6.250000 -1.740513
v 5.543278 -6.250000 2.851687
v -5.543276 -6.250000 2.851690
v 2.296100 6.250000 -4.987689
v -2.296101 6.250000 -4.987689
v -5.543277 6.250000 -1.740511
v 0.000001 4.586534 0.555587
v -6.000000 1.789540 -3.438934
v -5.999999 4.586535 0.555589
v 0.000001 4.586534 0.555587
v 6.000000 4.586534 0.555587
v 6.000000 1.789540 -3.438934
v 0.000001 4.586534 0.555587
v -5.999999 4.586535 0.555589
v -6.000000 1.789540 -3.438934
v 0.000001 4.586534 0.555587
v 6.000000 1.789540 -3.438934
v 6.000000 4.586534 0.555587
vn 0.967538 -0.000000 -0.252725
vn 0.862856 -0.000000 -0.505450
vn 0.505449 -0.000000 -0.862856
vn 0.252725 -0.000000 -0.967538
vn -0.252725 -0.000000 -0.967538
vn -0.505450 -0.000000 -0.862856
vn -0.862856 -0.000000 -0.505449
vn -0.967538 -0.000000 -0.252725
vn -0.967538 0.000000 0.252725
vn -0.862856 0.000000 0.505450
vn -0.967538 0.000000 0.252725
vn -0.862856 0.000000 0.505450
vn -0.505449 0.000000 0.862856
vn -0.252725 0.000000 0.967538
vn 0.252725 0.000000 0.967538
vn 0.505450 0.000000 0.862856
vn 0.862856 0.000000 0.505449
vn 0.967538 0.000000 0.252725
vn 0.967538 -0.000000 -0.252725
vn 0.862856 -0.000000 -0.505450
vn 0.000000 -1.000000 0.000000
vn 0.000000 -1.000000 0.000000
vn 0.000000 -1.000000 0.000000
vn 0.000000 -1.000000 0.000000
vn 0.000000 -1.000000 0.000000
vn 0.000000 0.000000 0.000000
vn 0.000000 1.000000 -0.000000
vn 0.000000 1.000000 -0.000000
vn 0.000000 1.000000 -0.000000
vn 0.000000 1.000000 -0.000000
vn 0.000000 1.000000 -0.000000
vn 0.000000 0.000000 0.000000
vn -0.000000 0.819152 -0.573576
vn -0.000000 0.819152 -0.573576
vn 0.000000 0.819152 -0.573576
vn 0.000000 0.819152 -0.573576
vn 0.000000 0.819152 -0.573576
vn 0.000000 0.000000 0.000000
vn -0.000000 -0.819152 0.573576
vn -0.000000 -0.819152 0.573576
vn -0.000000 -0.819152 0.573576
vn 0.000000 -0.819152 0.573576
vn 0.000000 -0.819152 0.573576
vn 0.000000 0.000000 0.000000
vn 0.000000 -1.000000 0.000000
vn 0.000000 -1.000000 0.000000
vn 0.000000 -1.000000 0.000000
vn 0.000000 -1.000000 0.000000
vn 0.000000 1.000000 -0.000000
vn 0.000000 1.000000 -0.000000
vn 0.000000 1.000000 -0.000000
vn 0.000000 1.000000 -0.000000
vn 0.000000 -1.000000 0.000000
vn 0.000000 -1.000000 0.000000
vn 0.000000 -1.000000 0.000000
vn 0.000000 1.000000 -0.000000
vn 0.000000 1.000000 -0.000000
vn 0.000000 1.000000 -0.000000
vn 0.000000 0.819152 -0.573576
vn 0.000000 0.819152 -0.573576
vn 0.000000 0.819152 -0.573576
vn 0.000000 0.819152 -0.573576
vn -0.000000 0.819152 -0.573576
vn -0.000000 0.819152 -0.573576
vn -0.000000 -0.819152 0.573576
vn -0.000000 -0.819152 0.573576
vn -0.000000 -0.819152 0.573576
vn -0.000000 -0.819152 0.573576
vn 0.000000 -0.819152 0.573576
vn 0.000000 -0.819152 0.573576
vt 0.003537 0.441842
vt 0.003537 0.996746
vt 0.227886 0.441842
vt 0.227886 0.996746
vt 0.452236 0.441842
vt 0.452236 0.996746
vt 0.680499 0.441842
vt 0.680499 0.996746
vt 0.904849 0.441842
vt 0.904849 0.996746
vt 0.003537 0.441842
vt 0.003537 0.996746
vt 0.227886 0.441842
vt 0.227886 0.996746
vt 0.452236 0.441842
vt 0.452236 0.996746
vt 0.680499 0.441842
vt 0.680499 0.996746
vt 0.904849 0.441842
vt 0.904849 0.996746
vt 0.450809 0.427119
vt 0.450809 0.254276
vt 0.873940 0.254276
vt 0.574741 0.132058
vt 0.750008 0.132058
vt 0.000000 1.000000
vt 0.016015 0.435130
vt 0.411432 0.435130
vt 0.016015 0.269028
vt 0.411432 0.269028
vt 0.294498 0.149767
vt 0.000000 1.000000
vt 0.993363 0.154687
vt 0.993363 0.154687
vt 0.776213 0.154687
vt 0.993363 0.154687
vt 0.993363 0.154687
vt 0.000000 1.000000
vt 0.993363 0.154687
vt 0.993363 0.154687
vt 0.776213 0.154687
vt 0.993363 0.154687
vt 0.993363 0.154687
vt 0.000000 1.000000
vt 0.574741 0.132058
vt 0.450809 0.254276
vt 0.750008 0.132058
vt 0.873940 0.254276
vt 0.131360 0.149767
vt 0.016015 0.269028
vt 0.290712 0.149767
vt 0.406057 0.269028
vt 0.873940 0.254276
vt 0.873940 0.427119
vt 0.450809 0.427119
vt 0.294498 0.149767
vt 0.132949 0.149767
vt 0.016015 0.269028
vt 0.776213 0.136386
vt 0.993363 0.270323
vt 0.993363 0.136386
vt 0.776213 0.136386
vt 0.993363 0.136386
vt 0.993363 0.270386
vt 0.776213 0.136386
vt 0.993363 0.136386
vt 0.993363 0.270323
vt 0.776213 0.136386
vt 0.993363 0.270386
vt 0.993363 0.136386
usemtl material_0
f 1/1/1 2/2/2 3/3/3
f 3/3/3 2/2/2 4/4/4
f 3/3/3 4/4/4 5/5/5
f 5/5/5 4/4/4 6/6/6
f 5/5/5 6/6/6 7/7/7
f 7/7/7 6/6/6 8/8/8
f 7/7/7 8/8/8 9/9/9
f 9/9/9 8/8/8 10/10/10
f 11/11/11 12/12/12 13/13/13
f 13/13/13 12/12/12 14/14/14
f 13/13/13 14/14/14 15/15/15
f 15/15/15 14/14/14 16/16/16
f 15/15/15 16/16/16 17/17/17
f 17/17/17 16/16/16 18/18/18
f 17/17/17 18/18/18 19/19/19
f 19/19/19 18/18/18 20/20/20
f 21/21/21 22/22/22 23/23/23
f 23/23/23 22/22/22 24/24/24
f 23/23/23 24/24/24 25/25/25
f 27/27/27 28/28/28 29/29/29
f 29/29/29 28/28/28 30/30/30
f 29/29/29 30/30/30 31/31/31
f 33/33/33 34/34/34 35/35/35
f 35/35/35 34/34/34 36/36/36
f 35/35/35 36/36/36 37/37/37
f 39/39/39 40/40/40 41/41/41
f 41/41/41 40/40/40 42/42/42
f 41/41/41 42/42/42 43/43/43
f 45/45/45 46/46/46 47/47/47
f 47/47/47 46/46/46 48/48/48
f 49/49/49 50/50/50 51/51/51
f 51/51/51 50/50/50 52/52/52
f 53/53/53 54/54/54 55/55/55
f 56/56/56 57/57/57 58/58/58
f 59/59/59 60/60/60 61/61/61
f 62/62/62 63/63/63 64/64/64
f 65/65/65 66/66/66 67/67/67
f 68/68/68 69/69/69 70/70/70
