# Portfolio
mtllib model.mtl
o part_0
v -7.000000 11.499999 1.000000
v -5.000000 15.500000 1.000000
v -7.000000 17.500000 1.000000
v 5.000000 15.500000 1.000000
v 7.000000 17.500000 1.000000
v 5.000000 11.499999 1.000000
v 7.000000 11.500000 1.000000
v 0.000000 0.000000 0.000000
v -7.000000 11.499999 -1.000000
v -7.000000 17.500000 -1.000000
v -5.000000 15.500000 -1.000000
v 7.000001 17.500000 -1.000000
v 5.000000 15.500000 -1.000000
v 7.000000 11.500000 -1.000000
v 5.000000 11.499999 -1.000000
v 0.000000 0.000000 0.000000
v 19.000000 -17.500000 6.000000
v 19.000000 11.500000 2.100000
v -19.000000 -17.500000 6.000000
v -19.000000 11.500000 2.100000
v -19.000000 11.500000 -2.099999
v 19.000000 11.500000 -2.099999
v -19.000000 -17.500000 -6.000000
v 19.000000 -17.500000 -6.000000
v -19.000000 -17.500000 -6.000000
v 19.000000 -17.500000 -6.000000
v -19.000000 -17.500000 6.000000
v 19.000000 -17.500000 6.000000
v 19.000000 -17.500000 -6.000000
v 19.000000 11.500000 -2.099999
v 19.000000 -17.500000 6.000000
v 19.000000 11.500000 2.100000
v 19.000000 11.500000 -2.099999
v -19.000000 11.500000 -2.099999
v 19.000000 11.500000 2.100000
v -19.000000 11.500000 2.100000
v -19.000000 11.500000 -2.099999
v -19.000000 -17.500000 -6.000000
v -19.000000 11.500000 2.100000
v -19.000000 -17.500000 6.000000
v -5.000000 15.500000 -1.000000
v -5.000000 15.500000 1.000000
v -5.000000 11.499999 -1.000000
v -5.000000 11.499999 1.000000
v 7.000001 17.500000 -1.000000
v 7.000000 17.500000 1.000000
v 7.000000 11.500000 -1.000000
v 7.000000 11.500000 1.000000
v 5.000000 15.500000 1.000000
v -5.000000 15.500000 1.000000
v 5.000000 15.500000 -1.000000
v -5.000000 15.500000 -1.000000
v -7.000000 11.499999 1.000000
v -7.000000 17.500000 1.000000
v -7.000000 11.499999 -1.000000
v -7.000000 17.500000 -1.000000
v -7.000000 17.500000 1.000000
v 7.000000 17.500000 1.000000
v -7.000000 17.500000 -1.000000
v 7.000001 17.500000 -1.000000
v 5.000000 11.499999 1.000000
v 5.000000 15.500000 1.000000
v 5.000000 11.499999 -1.000000
v 5.000000 15.500000 -1.000000
v -7.000000 11.499999 1.000000
v -5.000000 11.499999 1.000000
v -5.000000 15.500000 1.000000
v -5.000000 15.500000 -1.000000
v -5.000000 11.499999 -1.000000
v -7.000000 11.499999 -1.000000
vn -0.000000 -0.000000 1.000000
vn -0.000000 -0.000000 1.000000
vn -0.000000 0.000000 1.000000
vn 0.000000 0.000000 1.000000
vn 0.000000 0.000000 1.000000
vn 0.000000 -0.000000 1.000000
vn 0.000000 -0.000000 1.000000
vn 0.000000 0.000000 0.000000
vn -0.000000 0.000000 -1.000000
vn -0.000000 0.000000 -1.000000
vn -0.000000 0.000000 -1.000000
vn 0.000000 0.000000 -1.000000
vn -0.000000 0.000000 -1.000000
vn -0.000000 0.000000 -1.000000
vn -0.000000 0.000000 -1.000000
vn 0.000000 0.000000 0.000000
vn 0.000000 0.133283 0.991078
vn 0.000000 0.133283 0.991078
vn 0.000000 0.133283 0.991078
vn 0.000000 0.133283 0.991078
vn 0.000000 0.133283 -0.991078
vn 0.000000 0.133283 -0.991078
vn 0.000000 0.133283 -0.991078
vn 0.000000 0.133283 -0.991078
vn 0.000000 -1.000000 0.000000
vn 0.000000 -1.000000 0.000000
vn 0.000000 -1.000000 0.000000
vn 0.000000 -1.000000 0.000000
vn 1.000000 0.000000 0.000000
vn 1.000000 0.000000 0.000000
vn 1.000000 0.000000 0.000000
vn 1.000000 0.000000 0.000000
vn 0.000000 1.000000 -0.000000
vn 0.000000 1.000000 -0.000000
vn 0.000000 1.000000 -0.000000
vn 0.000000 1.000000 -0.000000
vn -1.000000 0.000000 0.000000
vn -1.000000 0.000000 0.000000
vn -1.000000 0.000000 0.000000
vn -1.000000 0.000000 0.000000
vn 1.000000 0.000000 0.000000
vn 1.000000 0.000000 0.000000
vn 1.000000 0.000000 0.000000
vn 1.000000 0.000000 0.000000
vn 1.000000 -0.000000 0.000000
vn 1.000000 -0.000000 0.000000
vn 1.000000 -0.000000 0.000000
vn 1.000000 0.000000 0.000000
vn 0.000000 -1.000000 0.000000
vn 0.000000 -1.000000 0.000000
vn 0.000000 -1.000000 0.000000
vn 0.000000 -1.000000 0.000000
vn -1.000000 0.000000 0.000000
vn -1.000000 0.000000 0.000000
vn -1.000000 0.000000 0.000000
vn -1.000000 0.000000 0.000000
vn 0.000000 1.000000 -0.000000
vn 0.000000 1.000000 -0.000000
vn 0.000000 1.000000 -0.000000
vn 0.000000 1.000000 -0.000000
vn -1.000000 0.000000 0.000000
vn -1.000000 -0.000000 0.000000
vn -1.000000 -0.000000 0.000000
vn -1.000000 -0.000000 0.000000
vn -0.000000 -0.000000 1.000000
vn -0.000000 -0.000000 1.000000
vn -0.000000 -0.000000 1.000000
vn -0.000000 0.000000 -1.000000
vn 0.000000 0.000000 -1.000000
vn -0.000000 0.000000 -1.000000
vt 0.995596 0.121217
vt 0.995596 0.043105
vt 0.995596 0.004049
vt 0.995596 0.043105
vt 0.995596 0.004049
vt 0.995596 0.121217
vt 0.995596 0.121217
vt 0.000000 1.000000
vt 0.941783 0.121217
vt 0.941783 0.004049
vt 0.941783 0.043105
vt 0.941783 0.004049
vt 0.941783 0.043105
vt 0.941783 0.121217
vt 0.941783 0.121217
vt 0.000000 1.000000
vt 0.750000 0.500000
vt 0.750000 0.000000
vt 0.000000 0.500000
vt 0.000000 0.000000
vt 0.000000 0.500000
vt 0.750000 0.500000
vt 0.000000 1.000000
vt 0.750000 1.000000
vt 0.755801 0.987469
vt 0.755801 0.987469
vt 0.997244 0.987469
vt 0.997245 0.987469
vt 0.755801 0.987469
vt 0.834270 0.251446
vt 0.997245 0.987469
vt 0.918775 0.251446
vt 0.927957 0.002617
vt 0.884061 0.002617
vt 0.927957 0.122522
vt 0.884061 0.122521
vt 0.834270 0.251446
vt 0.755801 0.987469
vt 0.918775 0.251446
vt 0.997244 0.987469
vt 0.941783 0.043105
vt 0.995596 0.043105
vt 0.941783 0.121217
vt 0.995596 0.121217
vt 0.941783 0.004049
vt 0.995596 0.004049
vt 0.941783 0.121217
vt 0.995596 0.121217
vt 0.995596 0.043105
vt 0.995596 0.043105
vt 0.941783 0.043105
vt 0.941783 0.043105
vt 0.995596 0.121217
vt 0.995596 0.004049
vt 0.941783 0.121217
vt 0.941783 0.004049
vt 0.995596 0.004049
vt 0.995596 0.004049
vt 0.941783 0.004049
vt 0.941783 0.004049
vt 0.995596 0.121217
vt 0.995596 0.043105
vt 0.941783 0.121217
vt 0.941783 0.043105
vt 0.995596 0.121217
vt 0.995596 0.121217
vt 0.995596 0.043105
vt 0.941783 0.043105
vt 0.941783 0.121217
vt 0.941783 0.121217
usemtl material_0
f 1/1/1 2/2/2 3/3/3
f 3/3/3 2/2/2 4/4/4
f 3/3/3 4/4/4 5/5/5
f 5/5/5 4/4/4 6/6/6
f 5/5/5 6/6/6 7/7/7
f 9/9/9 10/10/10 11/11/11
f 11/11/11 10/10/10 12/12/12
f 11/11/11 12/12/12 13/13/13
f 13/13/13 12/12/12 14/14/14
f 13/13/13 14/14/14 15/15/15
f 17/17/17 18/18/18 19/19/19
f 19/19/19 18/18/18 20/20/20
f 21/21/21 22/22/22 23/23/23
f 23/23/23 22/22/22 24/24/24
f 25/25/25 26/26/26 27/27/27
f 27/27/27 26/26/26 28/28/28
f 29/29/29 30/30/30 31/31/31
f 31/31/31 30/30/30 32/32/32
f 33/33/33 34/34/34 35/35/35
f 35/35/35 34/34/34 36/36/36
f 37/37/37 38/38/38 39/39/39
f 39/39/39 38/38/38 40/40/40
f 41/41/41 42/42/42 43/43/43
f 43/43/43 42/42/42 44/44/44
f 45/45/45 46/46/46 47/47/47
f 47/47/47 46/46/46 48/48/48
f 49/49/49 50/50/50 51/51/51
f 51/51/51 50/50/50 52/52/52
f 53/53/53 54/54/54 55/55/55
f 55/55/55 54/54/54 56/56/56
f 57/57/57 58/58/58 59/59/59
f 59/59/59 58/58/58 60/60/60
f 61/61/61 62/62/62 63/63/63
f 63/63/63 62/62/62 64/64/64
f 65/65/65 66/66/66 67/67/67
f 68/68/68 69/69/69 70/70/70
